<svg id="Слой_1" data-name="Слой 1" xmlns="http://www.w3.org/2000/svg" viewBox="0 0 30 30"><title>__hotline</title><path d="M202,188.25v-5a6.25,6.25,0,0,0-6.25-6.25h-7.5a6.25,6.25,0,0,0-6.25,6.25v5a5,5,0,0,0-5,5v1.25a5,5,0,0,0,5,5h3.75a1.25,1.25,0,0,0,1.25-1.25V189.5a1.25,1.25,0,0,0-1.25-1.25H184.5v-5a3.75,3.75,0,0,1,3.75-3.75h7.5a3.75,3.75,0,0,1,3.75,3.75v5h-1.25a1.25,1.25,0,0,0,0,2.5H202a2.5,2.5,0,0,1,2.5,2.5v1.25A2.5,2.5,0,0,1,202,197h-2.5v-2.5a1.25,1.25,0,0,0-2.5,0v3.75a1.25,1.25,0,0,0,1.25,1.25h1.25v5h-5v-1.25a1.25,1.25,0,0,0-2.5,0v2.5a1.25,1.25,0,0,0,1.25,1.25h7.5a1.25,1.25,0,0,0,1.25-1.25V199.5a5,5,0,0,0,5-5v-1.25A5,5,0,0,0,202,188.25ZM184.5,197H182a2.5,2.5,0,0,1-2.5-2.5v-1.25a2.5,2.5,0,0,1,2.5-2.5h2.5Z" transform="translate(-177 -177)"/></svg>