<svg id="Слой_1" data-name="Слой 1" xmlns="http://www.w3.org/2000/svg" viewBox="0 0 40 40"><title>__in</title><rect width="40" height="40" style="fill:#fff"/><path d="M259.83,88.48a4.94,4.94,0,0,0-3.1,1c0-1.22-1.32-.55-4.36-.73a.63.63,0,0,0-.62.63c.25,11.8-.56,13.14.62,13.14h3.89c1.12,0,.41-1.59.62-6.82,0-2.16.63-2.59,1.7-2.59s1.4.83,1.4,2.69c.22,5.14-.5,6.72.63,6.72h3.88a.62.62,0,0,0,.62-.62C264.82,95.39,266.65,88.48,259.83,88.48Zm4,12.83h-2.63c0-6,.63-9.41-2.65-9.41-3.74,0-2.95,4.12-2.95,9.41H253V90h2.48v1.09a.66.66,0,0,0,1.23.29,3.46,3.46,0,0,1,3.12-1.69c2.94,0,4,1.44,4,5.33Z" transform="translate(-235.14 -72.56)" style="fill:#14823d"/><path d="M250.56,89.42c0-1.08-1.57-.44-4.51-.63-1.18,0-.37,1.32-.63,13.15a.63.63,0,0,0,.63.62h3.89C251.12,102.56,250.31,101.24,250.56,89.42Zm-1.25,11.89h-2.64V90h2.64Z" transform="translate(-235.14 -72.56)" style="fill:#14823d"/><path d="M248,82.56c-3.81,0-3.79,5.78,0,5.78S251.81,82.56,248,82.56Zm0,4.53a1.64,1.64,0,0,1,0-3.28A1.64,1.64,0,0,1,248,87.09Z" transform="translate(-235.14 -72.56)" style="fill:#14823d"/></svg>