<svg id="Слой_1" data-name="Слой 1" xmlns="http://www.w3.org/2000/svg" viewBox="0 0 30 30"><title>Векторный смарт-объект1</title><path d="M205.75,177h-27.5a1.25,1.25,0,0,0-1.25,1.25v27.5a1.25,1.25,0,0,0,1.25,1.25h27.5a1.25,1.25,0,0,0,1.25-1.25v-27.5A1.25,1.25,0,0,0,205.75,177Zm-1.25,7.5H202v-5h2.5Zm-8.75-5h3.75v11.15l-1.09-.88a1.28,1.28,0,0,0-1.57,0l-1.09.88Zm-2.5,0v5H179.5v-5Zm-13.75,25V187h13.75v6.25a1.25,1.25,0,0,0,2,1l2.35-1.88,2.34,1.88a1.25,1.25,0,0,0,.78.27,1.29,1.29,0,0,0,.54-.12,1.26,1.26,0,0,0,.71-1.13V187h2.5v17.5Z" transform="translate(-177 -177)"/><path d="M182.63,183.25h1.25a1.25,1.25,0,0,0,0-2.5h-1.25a1.25,1.25,0,0,0,0,2.5Z" transform="translate(-177 -177)"/><path d="M188.25,183.25h1.25a1.25,1.25,0,0,0,0-2.5h-1.25a1.25,1.25,0,0,0,0,2.5Z" transform="translate(-177 -177)"/><path d="M188.88,195.75h-6.25a1.25,1.25,0,0,0,0,2.5h6.25a1.25,1.25,0,0,0,0-2.5Z" transform="translate(-177 -177)"/><path d="M185.13,199.5h-2.5a1.25,1.25,0,0,0,0,2.5h2.5a1.25,1.25,0,0,0,0-2.5Z" transform="translate(-177 -177)"/></svg>