<svg xmlns="http://www.w3.org/2000/svg" viewBox="0 0 20 20"><title>_Ресурс 1</title><g id="Слой_2" data-name="Слой 2"><g id="Слой_1-2" data-name="Слой 1"><path d="M19.17,2.5h-2.5V.83A.84.84,0,0,0,15.83,0,.83.83,0,0,0,15,.83V2.5H5V.83A.83.83,0,0,0,4.17,0a.84.84,0,0,0-.84.83V2.5H.83A.83.83,0,0,0,0,3.33V19.17A.83.83,0,0,0,.83,20H19.17a.83.83,0,0,0,.83-.83V3.33A.83.83,0,0,0,19.17,2.5ZM1.67,18.33V9.17H13.33a.85.85,0,0,0,.84-.84.84.84,0,0,0-.84-.83H1.67V4.17H3.33V5a.84.84,0,0,0,.84.83A.83.83,0,0,0,5,5V4.17H15V5a.83.83,0,0,0,.83.83A.84.84,0,0,0,16.67,5V4.17h1.66V7.5H16.67a.84.84,0,0,0-.84.83.85.85,0,0,0,.84.84h1.66v9.16Z" style="fill:#14823d"/><path d="M5,10.83H4.17a.85.85,0,0,0-.84.84.84.84,0,0,0,.84.83H5a.83.83,0,0,0,.83-.83A.84.84,0,0,0,5,10.83Z" style="fill:#14823d"/><path d="M8.75,10.83H7.92a.85.85,0,0,0-.84.84.84.84,0,0,0,.84.83h.83a.83.83,0,0,0,.83-.83A.84.84,0,0,0,8.75,10.83Z" style="fill:#14823d"/><path d="M12.08,10.83h-.83a.84.84,0,0,0-.83.84.83.83,0,0,0,.83.83h.83a.84.84,0,0,0,.84-.83A.85.85,0,0,0,12.08,10.83Z" style="fill:#14823d"/><path d="M15.83,10.83H15a.84.84,0,0,0-.83.84.83.83,0,0,0,.83.83h.83a.84.84,0,0,0,.84-.83A.85.85,0,0,0,15.83,10.83Z" style="fill:#14823d"/><path d="M5,14.17H4.17a.83.83,0,1,0,0,1.66H5a.83.83,0,0,0,0-1.66Z" style="fill:#14823d"/><path d="M8.75,14.17H7.92a.83.83,0,1,0,0,1.66h.83a.83.83,0,0,0,0-1.66Z" style="fill:#14823d"/><path d="M12.08,14.17h-.83a.83.83,0,0,0,0,1.66h.83a.83.83,0,1,0,0-1.66Z" style="fill:#14823d"/><path d="M15.83,14.17H15a.83.83,0,0,0,0,1.66h.83a.83.83,0,1,0,0-1.66Z" style="fill:#14823d"/></g></g></svg>