<svg id="Слой_1" data-name="Слой 1" xmlns="http://www.w3.org/2000/svg" viewBox="0 0 30 30"><title>_check</title><path d="M248.5,256.44,254,262l9.47-9.47L261,250l-6.57,6.57a.59.59,0,0,1-.83,0L251,254Z" transform="translate(-241 -241)" style="fill:#14823d"/><path d="M256,271c-.39,0-.77,0-1.15,0a15,15,0,1,1,13.34-6.22.58.58,0,0,1-.82.14.59.59,0,0,1-.13-.82,13.83,13.83,0,1,0-3.18,3.18.59.59,0,0,1,.82.13.58.58,0,0,1-.14.82A15,15,0,0,1,256,271Z" transform="translate(-241 -241)" style="fill:#14823d"/><path d="M266.19,266.78a.58.58,0,0,1-.41-.17.59.59,0,0,1-.17-.42.58.58,0,0,1,.58-.58.59.59,0,0,1,.42.17.58.58,0,0,1,.17.41.58.58,0,0,1-.59.59Z" transform="translate(-241 -241)" style="fill:#14823d"/></svg>