<svg xmlns="http://www.w3.org/2000/svg" viewBox="0 0 30 22.5">
  <title>email_1</title>
  <g id="Слой_2" data-name="Слой 2">
    <g id="Слой_1-2" data-name="Слой 1">
      <path d="M30,1.25h0A1.34,1.34,0,0,0,30,.9s0,0,0,0l0,0a1.4,1.4,0,0,0-.15-.3l0-.05a1.52,1.52,0,0,0-.22-.22l0,0a1.4,1.4,0,0,0-.3-.15l-.07,0A1,1,0,0,0,28.75,0H1.25A1,1,0,0,0,.9.06L.83.08a1.4,1.4,0,0,0-.3.15l0,0A1.52,1.52,0,0,0,.27.48l0,.05a1.4,1.4,0,0,0-.15.3s0,0,0,0,0,0,0,0a1.34,1.34,0,0,0,0,.35H0v20A1.25,1.25,0,0,0,1.25,22.5H5A1.25,1.25,0,0,0,5,20H2.5V3.71l11.76,8.55a1.26,1.26,0,0,0,1.48,0L27.5,3.71V20H10a1.25,1.25,0,0,0,0,2.5H28.75A1.25,1.25,0,0,0,30,21.25v-20ZM15,9.7,5.09,2.5H24.91Z" style="fill: #fff"/>
      <path d="M23.75,17.5a1.25,1.25,0,0,0,0-2.5h-5a1.25,1.25,0,0,0,0,2.5Z" style="fill: #fff"/>
    </g>
  </g>
</svg>
