<svg xmlns="http://www.w3.org/2000/svg" viewBox="0 0 40 40">
  <title>green_facebook</title>
  <g id="Слой_2" data-name="Слой 2">
    <g id="Слой_1-2" data-name="Слой 1">
      <rect width="40" height="40" style="fill: #14823d"/>
      <path d="M15.31,21.61h2.1v7.76A.63.63,0,0,0,18,30h3.33a.63.63,0,0,0,.63-.63V21.61h2a.63.63,0,0,0,.62-.54L25,17.73a.62.62,0,0,0-.62-.7H22c.09-2.06-.36-2.67,1-2.67.9-.11,2.33.35,2.33-.62v-3a.62.62,0,0,0-.54-.62A21.2,21.2,0,0,0,22.19,10c-5.84,0-4.63,6.48-4.78,7h-2.1a.63.63,0,0,0-.62.63V21a.62.62,0,0,0,.62.62Zm.63-3.33H18a.62.62,0,0,0,.62-.62V15c0-2.4,1.29-3.78,3.53-3.78.74,0,1.41,0,1.87.07v1.79c-.33.17-3.31-.73-3.31,2.25v2.3a.62.62,0,0,0,.62.62H23.7l-.26,2.09H21.37a.62.62,0,0,0-.62.62v7.76H18.66V21a.63.63,0,0,0-.62-.63h-2.1Z" style="fill: #fff"/>
    </g>
  </g>
</svg>
