<svg xmlns="http://www.w3.org/2000/svg" viewBox="0 0 20 15">
  <title>green_email</title>
  <g id="Слой_2" data-name="Слой 2">
    <g id="Слой_1-2" data-name="Слой 1">
      <path d="M20,.84h0A.93.93,0,0,0,20,.6v0a0,0,0,0,0,0,0,.7.7,0,0,0-.11-.21l0,0a.67.67,0,0,0-.15-.14l0,0a.78.78,0,0,0-.2-.11H19.4a.85.85,0,0,0-.23,0H.83A.85.85,0,0,0,.6,0h0a1.24,1.24,0,0,0-.2.1l0,0A.67.67,0,0,0,.18.32l0,0A.7.7,0,0,0,.05.56a0,0,0,0,0,0,0v0A.93.93,0,0,0,0,.83H0V14.17A.83.83,0,0,0,.83,15h2.5a.84.84,0,0,0,.84-.83.85.85,0,0,0-.84-.84H1.67V2.47l7.84,5.7a.83.83,0,0,0,1,0l7.84-5.7V13.33H6.67a.85.85,0,0,0-.84.84.84.84,0,0,0,.84.83h12.5a.83.83,0,0,0,.83-.83V.84ZM10,6.47,3.4,1.67H16.6Z" style="fill: #14823d"/>
      <path d="M15.83,11.67a.85.85,0,0,0,.84-.84.84.84,0,0,0-.84-.83H12.5a.83.83,0,0,0-.83.83.84.84,0,0,0,.83.84Z" style="fill: #14823d"/>
    </g>
  </g>
</svg>
