<svg xmlns="http://www.w3.org/2000/svg" viewBox="0 0 20 20">
  <title>green_clock</title>
  <g id="Слой_2" data-name="Слой 2">
    <g id="Слой_1-2" data-name="Слой 1">
      <path d="M17.9,5.26a.84.84,0,0,0-.39,1.12A8.2,8.2,0,0,1,18.33,10,8.33,8.33,0,1,1,10,1.67a8.26,8.26,0,0,1,5.17,1.79.83.83,0,1,0,1-1.3A10,10,0,1,0,20,10a9.87,9.87,0,0,0-1-4.35A.83.83,0,0,0,17.9,5.26Z" style="fill: #14823d"/>
      <path d="M10,3.33a.84.84,0,0,0-.83.84V10a.83.83,0,0,0,.83.83h4.17a.83.83,0,1,0,0-1.66H10.83v-5A.84.84,0,0,0,10,3.33Z" style="fill: #14823d"/>
    </g>
  </g>
</svg>
