<svg xmlns="http://www.w3.org/2000/svg" viewBox="0 0 80 80">
  <title>big_icon_3</title>
  <g id="Слой_2" data-name="Слой 2">
    <g id="Layer_1" data-name="Layer 1">
      <g>
        <path d="M72.19,0H7.81A7.81,7.81,0,0,0,0,7.81V48.75a7.81,7.81,0,0,0,7.81,7.81H26a14.35,14.35,0,0,0,.52,3.1l-8.84,8.83a1.57,1.57,0,0,0,.62,2.59l5.88,2,2,5.89a1.55,1.55,0,0,0,1.12,1,1.47,1.47,0,0,0,.36,0,1.53,1.53,0,0,0,1.1-.46l9.78-9.78a13,13,0,0,0,1.53.08c.44,0,.87,0,1.3-.06l9.76,9.76a1.54,1.54,0,0,0,1.1.46,1.47,1.47,0,0,0,.36,0,1.57,1.57,0,0,0,1.13-1l2-5.89,5.89-2a1.57,1.57,0,0,0,.61-2.59l-8.65-8.64A13.74,13.74,0,0,0,54,56.56H72.19A7.81,7.81,0,0,0,80,48.75V7.81A7.81,7.81,0,0,0,72.19,0ZM28.27,75.54l-1.41-4.23a1.54,1.54,0,0,0-1-1l-4.23-1.41,6.16-6.16a14.11,14.11,0,0,0,7.12,6.13Zm.79-19.76A10.94,10.94,0,1,1,40,66.72,11,11,0,0,1,29.06,55.78ZM58.11,68.92l-4.23,1.41a1.56,1.56,0,0,0-1,1l-1.41,4.23L44.9,69a14.14,14.14,0,0,0,7.21-6ZM76.87,48.75a4.69,4.69,0,0,1-4.68,4.69H53.87a14.07,14.07,0,0,0-27.74,0H7.81a4.7,4.7,0,0,1-4.69-4.69V7.81A4.7,4.7,0,0,1,7.81,3.12H72.19a4.69,4.69,0,0,1,4.68,4.69Z" style="fill: #0a401e"/>
        <path d="M30.62,14.06H49.37a1.56,1.56,0,1,0,0-3.12H30.62a1.56,1.56,0,0,0,0,3.12Z" style="fill: #0a401e"/>
        <path d="M18.44,20.31H37.19a1.56,1.56,0,1,0,0-3.12H18.44a1.56,1.56,0,1,0,0,3.12Z" style="fill: #0a401e"/>
        <path d="M41.87,18.75a1.56,1.56,0,0,0,1.57,1.56H61.56a1.56,1.56,0,0,0,0-3.12H43.44A1.56,1.56,0,0,0,41.87,18.75Z" style="fill: #0a401e"/>
        <path d="M69.69,28.12H10.31a1.57,1.57,0,0,0,0,3.13H69.69a1.57,1.57,0,0,0,0-3.13Z" style="fill: #0a401e"/>
        <path d="M40,34.37a1.57,1.57,0,1,0,1.56,1.57A1.57,1.57,0,0,0,40,34.37Z" style="fill: #0a401e"/>
        <path d="M33.75,34.37H10.31a1.57,1.57,0,0,0,0,3.13H33.75a1.57,1.57,0,0,0,0-3.13Z" style="fill: #0a401e"/>
        <path d="M69.69,34.37H46.25a1.57,1.57,0,0,0,0,3.13H69.69a1.57,1.57,0,0,0,0-3.13Z" style="fill: #0a401e"/>
        <path d="M69.37,40.62h-15a1.57,1.57,0,0,0,0,3.13h15a1.57,1.57,0,1,0,0-3.13Z" style="fill: #0a401e"/>
        <path d="M40,48a7.81,7.81,0,1,0,7.81,7.81A7.81,7.81,0,0,0,40,48Zm0,12.5a4.69,4.69,0,1,1,4.69-4.69A4.7,4.7,0,0,1,40,60.47Z" style="fill: #0a401e"/>
      </g>
    </g>
  </g>
</svg>
