<svg xmlns="http://www.w3.org/2000/svg" viewBox="0 0 30 30">
  <title>hotline</title>
  <g id="Слой_2" data-name="Слой 2">
    <g id="Слой_1-2" data-name="Слой 1">
      <path d="M25,11.25v-5A6.25,6.25,0,0,0,18.75,0h-7.5A6.25,6.25,0,0,0,5,6.25v5a5,5,0,0,0-5,5V17.5a5,5,0,0,0,5,5H8.75A1.25,1.25,0,0,0,10,21.25V12.5a1.25,1.25,0,0,0-1.25-1.25H7.5v-5A3.75,3.75,0,0,1,11.25,2.5h7.5A3.75,3.75,0,0,1,22.5,6.25v5H21.25a1.25,1.25,0,0,0,0,2.5H25a2.5,2.5,0,0,1,2.5,2.5V17.5A2.5,2.5,0,0,1,25,20H22.5V17.5a1.25,1.25,0,0,0-2.5,0v3.75a1.25,1.25,0,0,0,1.25,1.25H22.5v5h-5V26.25a1.25,1.25,0,0,0-2.5,0v2.5A1.25,1.25,0,0,0,16.25,30h7.5A1.25,1.25,0,0,0,25,28.75V22.5a5,5,0,0,0,5-5V16.25A5,5,0,0,0,25,11.25ZM7.5,20H5a2.5,2.5,0,0,1-2.5-2.5V16.25A2.5,2.5,0,0,1,5,13.75H7.5Z" style="fill: #fff"/>
    </g>
  </g>
</svg>
