<svg xmlns="http://www.w3.org/2000/svg" viewBox="0 0 22.5 30">
  <title>placeholder_1</title>
  <g id="Слой_2" data-name="Слой 2">
    <g id="Слой_1-2" data-name="Слой 1">
      <path d="M16.39,21.87a1.25,1.25,0,0,0,1.73-.36C21,17,22.5,13.58,22.5,11.25a11.25,11.25,0,0,0-22.5,0c0,5.81,9.24,17,10.29,18.3a1.27,1.27,0,0,0,1,.45h0a1.24,1.24,0,0,0,1-.45c.06-.07,1.42-1.7,3.15-4.06a1.25,1.25,0,0,0-2-1.48c-.81,1.11-1.55,2.06-2.09,2.75C8.14,22.85,2.5,15,2.5,11.25a8.75,8.75,0,0,1,17.5,0c0,1.79-1.41,4.95-4,8.89A1.25,1.25,0,0,0,16.39,21.87Z" style="fill: #fff"/>
      <path d="M6.88,10a4.38,4.38,0,1,0,4.37-4.37A4.38,4.38,0,0,0,6.88,10Zm6.25,0a1.88,1.88,0,1,1-1.88-1.87A1.89,1.89,0,0,1,13.13,10Z" style="fill: #fff"/>
    </g>
  </g>
</svg>
