<svg xmlns="http://www.w3.org/2000/svg" viewBox="0 0 64 64">
  <title>play</title>
  <g id="Слой_2" data-name="Слой 2">
    <g id="Layer_1" data-name="Layer 1">
      <circle cx="32" cy="32" r="32" style="fill: #14823d;opacity: 0.30000000000000004"/>
      <g>
        <circle cx="32" cy="32" r="24" style="fill: #14823d"/>
        <path d="M41.56,32.63l-13.8,9.31a1,1,0,0,1-.54.17,1.16,1.16,0,0,1-.48-.11,1,1,0,0,1-.54-.87l-.4-18a1,1,0,0,1,.51-.89,1,1,0,0,1,1,0L41.52,31a1,1,0,0,1,.48.83A1,1,0,0,1,41.56,32.63Z" style="fill: #fff"/>
      </g>
    </g>
  </g>
</svg>
