<svg xmlns="http://www.w3.org/2000/svg" viewBox="0 0 64 64">
  <title>subpage_big_icon_2</title>
  <g id="Слой_2" data-name="Слой 2">
    <g id="Capa_1" data-name="Capa 1">
      <path d="M56,11.63a1.25,1.25,0,0,0,1.25-1.25V3.75A3.75,3.75,0,0,0,53.5,0H3.75A3.75,3.75,0,0,0,0,3.75v56.5A3.75,3.75,0,0,0,3.75,64H53.5a3.75,3.75,0,0,0,3.75-3.75v-3.5a1.25,1.25,0,0,0-2.5,0v3.5A1.25,1.25,0,0,1,53.5,61.5H3.75A1.25,1.25,0,0,1,2.5,60.25V3.75A1.25,1.25,0,0,1,3.75,2.5H53.5a1.25,1.25,0,0,1,1.25,1.25v6.63A1.25,1.25,0,0,0,56,11.63Z" style="fill: #fff"/>
      <path d="M50,6H7.25A1.25,1.25,0,0,0,6,7.25V33.38a1.25,1.25,0,0,0,2.5,0V8.5H48.75v2a1.25,1.25,0,0,0,2.5,0V7.25A1.25,1.25,0,0,0,50,6Z" style="fill: #fff"/>
      <path d="M8.13,37.12A1.23,1.23,0,1,0,8.5,38,1.22,1.22,0,0,0,8.13,37.12Z" style="fill: #fff"/>
      <path d="M50,52.75A1.25,1.25,0,0,0,48.75,54v1.5H8.5V42.81a1.25,1.25,0,0,0-2.5,0V56.75A1.25,1.25,0,0,0,7.25,58H50a1.25,1.25,0,0,0,1.25-1.25V54A1.25,1.25,0,0,0,50,52.75Z" style="fill: #fff"/>
      <path d="M38.74,44.17a1.25,1.25,0,0,0-1.77,0L34.5,46.64,33,45.1a2.48,2.48,0,0,0-3.51,0l-1,1a1.25,1.25,0,0,0,1.77,1.77l1-1,1.53,1.53a2.49,2.49,0,0,0,3.52,0l2.48-2.48A1.24,1.24,0,0,0,38.74,44.17Z" style="fill: #fff"/>
      <path d="M63.42,26.22A3.62,3.62,0,0,0,62,21,1.14,1.14,0,0,1,61.42,20a3.63,3.63,0,0,0-3.8-3.8,1.12,1.12,0,0,1-1.06-.62,3.65,3.65,0,0,0-5.2-1.39,1.12,1.12,0,0,1-1.22,0,3.65,3.65,0,0,0-5.2,1.39,1.13,1.13,0,0,1-1.06.62,3.63,3.63,0,0,0-3.8,3.8A1.14,1.14,0,0,1,39.47,21a3.66,3.66,0,0,0-1.85,2.29,3.84,3.84,0,0,0-.09,1.43H15.72a1.25,1.25,0,1,0,0,2.5H38.17a.54.54,0,0,1-.1.2,3.66,3.66,0,0,0-.45,2.9,2.7,2.7,0,0,0,.14.4h-22a1.25,1.25,0,1,0,0,2.5H40a1,1,0,0,1,.08.45,3.63,3.63,0,0,0,3.8,3.81,1.12,1.12,0,0,1,1.06.61,3.42,3.42,0,0,0,.56.79V50.59a1.25,1.25,0,0,0,2.13.88l3.12-3.1,3.12,3.1a1.25,1.25,0,0,0,.88.37,1.18,1.18,0,0,0,.48-.1A1.24,1.24,0,0,0,56,50.59V38.91a3.42,3.42,0,0,0,.56-.79,1.14,1.14,0,0,1,1.06-.61,3.63,3.63,0,0,0,3.8-3.81A1.15,1.15,0,0,1,62,32.64a3.62,3.62,0,0,0,1.39-5.19A1.18,1.18,0,0,1,63.42,26.22ZM53.5,47.58l-1.87-1.86a1.26,1.26,0,0,0-1.76,0L48,47.58v-7.5a3.62,3.62,0,0,0,2.14-.57,1.12,1.12,0,0,1,1.22,0,3.65,3.65,0,0,0,2,.58h.17v7.5Zm8-17.87a1.11,1.11,0,0,1-.58.71,3.67,3.67,0,0,0-2,3.4,1.11,1.11,0,0,1-.33.86,1.14,1.14,0,0,1-.86.33,3.65,3.65,0,0,0-3.4,2,1.12,1.12,0,0,1-.71.58,1.16,1.16,0,0,1-.91-.14,3.6,3.6,0,0,0-3.92,0A1.14,1.14,0,0,1,47.16,37a3.63,3.63,0,0,0-3.4-2,1.13,1.13,0,0,1-.85-.33,1.11,1.11,0,0,1-.33-.86,3.69,3.69,0,0,0-1-2.66l-.06-.06a3.66,3.66,0,0,0-.92-.68,1.13,1.13,0,0,1-.57-.71,1.08,1.08,0,0,1,.14-.91,3.67,3.67,0,0,0,0-3.93A1.06,1.06,0,0,1,40,24a1.12,1.12,0,0,1,.57-.72,3.65,3.65,0,0,0,2-3.4,1.11,1.11,0,0,1,.33-.86,1.17,1.17,0,0,1,.85-.33,3.63,3.63,0,0,0,3.4-2,1.16,1.16,0,0,1,.72-.58,1.13,1.13,0,0,1,.91.15,3.65,3.65,0,0,0,3.92,0,1.12,1.12,0,0,1,1.62.43,3.65,3.65,0,0,0,3.4,2,1.18,1.18,0,0,1,.86.33,1.11,1.11,0,0,1,.33.86,3.65,3.65,0,0,0,2,3.4,1.12,1.12,0,0,1,.57.72,1.14,1.14,0,0,1-.14.9,3.67,3.67,0,0,0,0,3.93A1.16,1.16,0,0,1,61.46,29.71Z" style="fill: #fff"/>
      <path d="M56.69,23.44a1.24,1.24,0,0,0-1.76,0l-4.15,4.14-1.65-1.65a1.25,1.25,0,0,0-1.77,1.77l2.53,2.54a1.28,1.28,0,0,0,.89.36,1.24,1.24,0,0,0,.88-.36l5-5A1.24,1.24,0,0,0,56.69,23.44Z" style="fill: #fff"/>
      <path d="M15.26,15.12a1.24,1.24,0,0,0-1.77,0,1.25,1.25,0,0,0,.89,2.13,1.23,1.23,0,0,0,.88-.37,1.23,1.23,0,0,0,0-1.76Z" style="fill: #fff"/>
      <path d="M25.12,14.75H19a1.25,1.25,0,0,0,0,2.5h6.08a1.25,1.25,0,1,0,0-2.5Z" style="fill: #fff"/>
      <path d="M37.85,36.75H23.56a1.25,1.25,0,0,0,0,2.5H37.85a1.25,1.25,0,0,0,0-2.5Z" style="fill: #fff"/>
    </g>
  </g>
</svg>
