<svg xmlns="http://www.w3.org/2000/svg" viewBox="0 0 30 30">
  <title>web_1</title>
  <g id="Слой_2" data-name="Слой 2">
    <g id="Слой_1-2" data-name="Слой 1">
      <path d="M28.75,0H1.25A1.25,1.25,0,0,0,0,1.25v27.5A1.25,1.25,0,0,0,1.25,30h27.5A1.25,1.25,0,0,0,30,28.75V1.25A1.25,1.25,0,0,0,28.75,0ZM27.5,7.5H25v-5h2.5Zm-8.75-5H22.5V13.65l-1.09-.88a1.28,1.28,0,0,0-1.57,0l-1.09.88Zm-2.5,0v5H2.5v-5ZM2.5,27.5V10H16.25v6.25a1.25,1.25,0,0,0,2,1l2.35-1.88L23,17.23a1.23,1.23,0,0,0,.78.27,1.29,1.29,0,0,0,.54-.12A1.25,1.25,0,0,0,25,16.25V10h2.5V27.5Z" style="fill: #fff"/>
      <path d="M5.63,6.25H6.88a1.25,1.25,0,1,0,0-2.5H5.63a1.25,1.25,0,1,0,0,2.5Z" style="fill: #fff"/>
      <path d="M11.25,6.25H12.5a1.25,1.25,0,0,0,0-2.5H11.25a1.25,1.25,0,0,0,0,2.5Z" style="fill: #fff"/>
      <path d="M11.88,18.75H5.63a1.25,1.25,0,1,0,0,2.5h6.25a1.25,1.25,0,1,0,0-2.5Z" style="fill: #fff"/>
      <path d="M8.13,22.5H5.63a1.25,1.25,0,1,0,0,2.5h2.5a1.25,1.25,0,1,0,0-2.5Z" style="fill: #fff"/>
    </g>
  </g>
</svg>
