<?xml version="1.0" standalone="no"?>
<!DOCTYPE svg PUBLIC "-//W3C//DTD SVG 1.1//EN" "http://www.w3.org/Graphics/SVG/1.1/DTD/svg11.dtd" >
<svg xmlns="http://www.w3.org/2000/svg">
<metadata>Generated by IcoMoon</metadata>
<defs>
<font id="icomoon" horiz-adv-x="1024">
<font-face units-per-em="1024" ascent="960" descent="-64" />
<missing-glyph horiz-adv-x="1024" />
<glyph unicode="&#x20;" horiz-adv-x="512" d="" />
<glyph unicode="&#xe1;" glyph-name="web_1" d="M981.333 960h-938.667c-23.564 0-42.667-19.103-42.667-42.667v0-938.667c0-23.564 19.103-42.667 42.667-42.667v0h938.667c23.564 0 42.667 19.103 42.667 42.667v0 938.667c0 23.564-19.103 42.667-42.667 42.667v0zM938.667 704h-85.333v170.667h85.333zM640 874.667h128v-380.587l-37.205 30.037c-7.318 5.725-16.653 9.181-26.795 9.181s-19.476-3.456-26.891-9.253l0.096 0.072-37.205-30.037zM554.667 874.667v-170.667h-469.333v170.667zM85.333 21.333v597.333h469.333v-213.333c0-23.564 19.103-42.667 42.667-42.667 9.653 0 18.558 3.206 25.707 8.611l-0.107-0.078 80.213 64.171 81.92-63.488c7.121-5.742 16.279-9.218 26.249-9.218 0.132 0 0.263 0.001 0.395 0.002h-0.020c6.693 0.018 13.029 1.526 18.7 4.21l-0.268-0.114c13.891 7.227 23.215 21.512 23.215 37.975 0 0.21-0.002 0.419-0.005 0.628v-0.032 213.333h85.333v-597.333zM192.171 746.667h42.667c23.564 0 42.667 19.103 42.667 42.667s-19.103 42.667-42.667 42.667v0h-42.667c-23.564 0-42.667-19.103-42.667-42.667s19.103-42.667 42.667-42.667v0zM384 746.667h42.667c23.564 0 42.667 19.103 42.667 42.667s-19.103 42.667-42.667 42.667v0h-42.667c-23.564 0-42.667-19.103-42.667-42.667s19.103-42.667 42.667-42.667v0zM405.504 320h-213.333c-23.564 0-42.667-19.103-42.667-42.667s19.103-42.667 42.667-42.667v0h213.333c23.564 0 42.667 19.103 42.667 42.667s-19.103 42.667-42.667 42.667v0zM277.504 192h-85.333c-23.564 0-42.667-19.103-42.667-42.667s19.103-42.667 42.667-42.667v0h85.333c23.564 0 42.667 19.103 42.667 42.667s-19.103 42.667-42.667 42.667v0z" />
<glyph unicode="&#xe2;" d="M0 960h1024v-1024h-1024v1024z" />
<glyph unicode="&#xe3;" d="M263.424 284.416c45.882-29.238 101.804-46.6 161.782-46.6 85.006 0 161.866 34.875 217.053 91.098l0.045 0.046c50.424 52.93 81.448 124.738 81.448 203.792 0 1.705-0.014 3.406-0.043 5.104l0.003-0.256c24.575 20.122 41.049 49.344 44.249 82.449l0.039 0.495c-0.039 8.878-7.245 16.060-16.128 16.060-3.021 0-5.848-0.831-8.266-2.276l0.074 0.041c-10.41-7.070-23.254-11.287-37.083-11.287-6.206 0-12.214 0.849-17.914 2.438l0.468-0.111c-20.798 20.352-49.295 32.911-80.724 32.911-20.549 0-39.843-5.368-56.558-14.778l0.579 0.3c-36.086-18.915-60.283-56.11-60.283-98.956 0-1.842 0.045-3.673 0.133-5.493l-0.010 0.256c-70.32 8.742-131.16 43.664-173.472 94.541l-0.352 0.435c-2.961 3.244-7.207 5.271-11.927 5.271-5.738 0-10.776-2.996-13.634-7.509l-0.039-0.066c-10.098-16.528-16.077-36.527-16.077-57.923 0-19.58 5.007-37.99 13.81-54.020l-0.293 0.583c-8.024-1.283-14.081-8.155-14.081-16.442 0-0.070 0-0.139 0.001-0.208v0.011c0.012-34.363 15.34-65.144 39.528-85.889l0.152-0.127c-3.067-2.941-4.974-7.072-4.974-11.649 0-1.879 0.321-3.683 0.912-5.36l-0.035 0.113c10.982-32.035 34.612-57.252 64.775-70.112l0.761-0.288c-23.746-11.58-51.665-18.351-81.165-18.351-7.482 0-14.862 0.435-22.116 1.283l0.882-0.084c-0.539 0.064-1.163 0.1-1.795 0.1-8.907 0-16.128-7.221-16.128-16.128 0-5.568 2.822-10.478 7.114-13.376l0.057-0.036zM429.056 325.632c3.859 2.977 6.321 7.603 6.321 12.803 0 8.789-7.031 15.937-15.775 16.124h-0.018c-27.075 0.513-50.942 13.803-65.886 34.074l-0.162 0.23c8.154 0.638 15.663 1.908 22.929 3.784l-0.913-0.2c7.279 1.659 12.63 8.077 12.63 15.744s-5.35 14.085-12.521 15.723l-0.108 0.021c-29.939 6.224-53.661 27.82-62.81 55.986l-0.166 0.59c7.635-1.959 16.437-3.163 25.494-3.326l0.106-0.002c0.152-0.005 0.33-0.008 0.509-0.008 8.907 0 16.128 7.221 16.128 16.128 0 5.674-2.93 10.663-7.359 13.538l-0.063 0.038c-22.297 14.534-36.829 39.35-36.829 67.562 0 7.103 0.921 13.991 2.651 20.551l-0.126-0.56c51.202-51.677 120.963-84.889 198.45-88.803l0.718-0.029c0.198-0.009 0.429-0.014 0.662-0.014 8.907 0 16.128 7.221 16.128 16.128 0 1.276-0.148 2.517-0.428 3.707l0.022-0.109c-1.526 5.798-2.403 12.455-2.403 19.316 0 30.706 17.552 57.312 43.17 70.333l0.448 0.207c11.729 6.772 25.799 10.768 40.802 10.768 23.768 0 45.194-10.028 60.277-26.084l0.041-0.044c11.029-5.846 24.111-9.279 37.995-9.279 7.331 0 14.438 0.957 21.204 2.753l-0.575-0.13c-7.38-13.81-17.278-25.344-29.182-34.372l-0.258-0.188c-4.213-2.951-6.933-7.783-6.933-13.25 0-0.292 0.008-0.582 0.023-0.87l-0.002 0.040c0.18-3.63 0.282-7.883 0.282-12.159 0-70.32-27.715-134.167-72.819-181.213l0.088 0.093c-48.372-50.841-116.538-82.462-192.090-82.462-1.409 0-2.815 0.011-4.218 0.033l0.212-0.003c-0.139 0-0.305 0-0.47 0-30.991 0-60.756 5.25-88.454 14.908l1.884-0.572c35.004 6.823 65.835 21.268 91.871 41.575l-0.479-0.359z" />
<glyph unicode="&#xe4;" glyph-name="subpage_big_icon_2" d="M896 773.92c11.046 0 20 8.954 20 20v0 106.080c0 33.137-26.863 60-60 60v0h-796c-33.137 0-60-26.863-60-60v0-904c0-33.137 26.863-60 60-60v0h796c33.137 0 60 26.863 60 60v0 56c0 11.046-8.954 20-20 20s-20-8.954-20-20v0-56c0-11.046-8.954-20-20-20v0h-796c-11.046 0-20 8.954-20 20v0 904c0 11.046 8.954 20 20 20v0h796c11.046 0 20-8.954 20-20v0-106.080c0-11.046 8.954-20 20-20v0zM800 864h-684c-11.046 0-20-8.954-20-20v0-418.080c0-11.046 8.954-20 20-20s20 8.954 20 20v0 398.080h644v-32c0-11.046 8.954-20 20-20s20 8.954 20 20v0 52c0 11.046-8.954 20-20 20v0zM130.080 366.080c-3.545 3.469-8.403 5.61-13.76 5.61-10.869 0-19.68-8.811-19.68-19.68s8.811-19.68 19.68-19.68c10.865 0 19.674 8.805 19.68 19.669v0.001c0 0.023 0 0.050 0 0.077 0 5.49-2.267 10.451-5.916 13.998l-0.005 0.004zM800 116c-11.046 0-20-8.954-20-20v0-24h-644v203.040c0 11.046-8.954 20-20 20s-20-8.954-20-20v0-223.040c0-11.046 8.954-20 20-20v0h684c11.046 0 20 8.954 20 20v0 44c0 11.046-8.954 20-20 20v0zM619.84 253.28c-3.621 3.63-8.628 5.876-14.16 5.876s-10.539-2.246-14.16-5.875v0l-39.52-39.52-24 24.64c-7.183 7.194-17.112 11.644-28.080 11.644s-20.897-4.45-28.080-11.644v0l-16-16c-3.624-3.624-5.865-8.63-5.865-14.16 0-11.060 8.966-20.025 20.025-20.025 5.53 0 10.536 2.241 14.16 5.865l16 16 24.48-24.48c7.208-7.203 17.164-11.658 28.16-11.658s20.951 4.455 28.16 11.658l39.68 39.68c3.34 3.542 5.393 8.331 5.393 13.599 0 5.666-2.375 10.778-6.185 14.393l-0.009 0.008zM1014.72 540.48c5.902 8.926 9.416 19.88 9.416 31.656 0 22.593-12.936 42.165-31.805 51.712l-0.331 0.152c-5.58 3.191-9.28 9.107-9.28 15.888 0 0.039 0 0.079 0 0.118v-0.006c0.043 0.832 0.067 1.807 0.067 2.787 0 32.077-26.003 58.080-58.080 58.080-0.98 0-1.955-0.024-2.923-0.072l0.136 0.005c-0.273-0.015-0.592-0.023-0.913-0.023-6.99 0-13.046 4.003-16 9.841l-0.047 0.102c-9.954 18.81-29.4 31.408-51.788 31.408-11.661 0-22.524-3.418-31.642-9.306l0.229 0.139c-2.754-1.812-6.131-2.891-9.76-2.891s-7.006 1.079-9.828 2.933l0.068-0.042c-8.888 5.75-19.751 9.168-31.412 9.168-22.388 0-41.833-12.598-51.635-31.091l-0.153-0.317c-3.045-5.942-9.127-9.938-16.143-9.938-0.287 0-0.573 0.007-0.857 0.020l0.040-0.001c-0.832 0.043-1.807 0.067-2.787 0.067-32.077 0-58.080-26.003-58.080-58.080 0-0.98 0.024-1.955 0.072-2.923l-0.005 0.136c-0.058-6.915-3.955-12.906-9.662-15.952l-0.098-0.048c-14.424-7.574-25.132-20.579-29.502-36.228l-0.098-0.412c-1.218-4.571-1.918-9.82-1.918-15.231 0-2.696 0.174-5.352 0.51-7.956l-0.033 0.308h-348.96c-11.046 0-20-8.954-20-20s8.954-20 20-20v0h359.2c-0.327-1.229-0.878-2.3-1.613-3.217l0.013 0.017c-5.737-8.896-9.147-19.763-9.147-31.426 0-5.324 0.71-10.482 2.042-15.384l-0.095 0.41c0.666-2.501 1.431-4.629 2.35-6.673l-0.11 0.273h-352c-11.046 0-20-8.954-20-20s8.954-20 20-20v0h387.84c0.824-1.865 1.304-4.040 1.304-6.326 0-0.307-0.009-0.613-0.026-0.916l0.002 0.042c-0.048-0.88-0.075-1.911-0.075-2.947 0-32.077 26.003-58.080 58.080-58.080 0.983 0 1.96 0.024 2.931 0.073l-0.137-0.005c0.296 0.017 0.643 0.027 0.992 0.027 6.929 0 12.94-3.933 15.921-9.688l0.047-0.1c2.511-4.832 5.494-8.99 8.982-12.664l-0.022 0.024v-187.36c0.070-10.992 8.997-19.876 20-19.876 5.492 0 10.467 2.214 14.082 5.798l-0.001-0.001 49.92 49.6 49.92-49.6c3.597-3.628 8.571-5.885 14.073-5.92h0.007c0.022 0 0.048 0 0.073 0 2.753 0 5.368 0.589 7.726 1.648l-0.119-0.048c7.29 3.043 12.32 10.114 12.32 18.36 0 0.014 0 0.028 0 0.043v-0.002 186.88c3.466 3.65 6.449 7.808 8.816 12.338l0.144 0.302c3.114 5.857 9.178 9.778 16.158 9.778 0.282 0 0.563-0.006 0.841-0.019l-0.040 0.001c0.834-0.043 1.812-0.067 2.795-0.067 32.077 0 58.080 26.003 58.080 58.080 0 1.037-0.027 2.067-0.081 3.090l0.006-0.143c-0.016 0.288-0.025 0.625-0.025 0.965 0 6.817 3.708 12.769 9.216 15.948l0.089 0.047c18.871 9.806 31.539 29.205 31.539 51.563 0 11.7-3.469 22.59-9.435 31.697l0.136-0.221c-1.593 2.71-2.534 5.969-2.534 9.447 0 3.802 1.124 7.342 3.058 10.305l-0.044-0.073zM856 198.72l-29.92 29.76c-3.63 3.545-8.6 5.732-14.080 5.732s-10.45-2.187-14.084-5.735l0.004 0.004-29.92-29.76v120c0.874-0.047 1.897-0.074 2.927-0.074 11.632 0 22.463 3.429 31.537 9.331l-0.224-0.137c2.754 1.812 6.131 2.891 9.76 2.891s7.006-1.079 9.828-2.933l-0.068 0.042c8.928-5.82 19.855-9.281 31.59-9.281 0.144 0 0.288 0.001 0.432 0.002h2.698v-120zM984 484.64c-1.362-5.019-4.735-9.072-9.178-11.313l-0.102-0.047c-19.166-9.931-32.037-29.616-32.037-52.307 0-0.736 0.014-1.469 0.040-2.198l-0.003 0.105c0.021-0.326 0.034-0.707 0.034-1.091 0-4.96-2.033-9.444-5.311-12.667l-0.003-0.002c-3.297-3.277-7.841-5.302-12.857-5.302-0.317 0-0.633 0.008-0.946 0.024l0.044-0.002c-0.682 0.028-1.481 0.045-2.285 0.045-22.64 0-42.27-12.883-51.962-31.717l-0.153-0.328c-2.304-4.532-6.351-7.899-11.234-9.25l-0.126-0.030c-1.407-0.382-3.023-0.602-4.69-0.602-3.659 0-7.071 1.059-9.946 2.887l0.075-0.045c-8.85 5.821-19.7 9.285-31.36 9.285s-22.51-3.464-31.578-9.42l0.218 0.134c-2.77-1.785-6.153-2.846-9.784-2.846-7.086 0-13.228 4.040-16.248 9.943l-0.048 0.103c-9.758 19.159-29.334 32.053-51.922 32.053-0.872 0-1.739-0.019-2.601-0.057l0.123 0.004c-0.243-0.012-0.527-0.018-0.813-0.018-4.994 0-9.515 2.025-12.787 5.298v0c-3.281 3.225-5.314 7.709-5.314 12.669 0 0.384 0.012 0.765 0.036 1.143l-0.003-0.052c0.024 0.628 0.038 1.365 0.038 2.106 0 15.67-6.105 29.914-16.065 40.483l0.028-0.030-0.96 0.96c-4.209 4.275-9.061 7.902-14.401 10.726l-0.319 0.154c-4.455 2.352-7.757 6.385-9.090 11.233l-0.030 0.127c-0.451 1.468-0.71 3.155-0.71 4.903 0 3.603 1.103 6.948 2.989 9.717l-0.039-0.060c5.725 8.904 9.126 19.775 9.126 31.44s-3.401 22.535-9.266 31.674l0.14-0.234c-1.983 2.741-3.171 6.169-3.171 9.875 0 1.378 0.164 2.718 0.475 4.001l-0.024-0.116c1.304 5.048 4.621 9.15 9.022 11.473l0.098 0.047c19.162 9.845 32.045 29.475 32.045 52.115 0 0.804-0.016 1.604-0.048 2.399l0.004-0.114c-0.021 0.326-0.034 0.707-0.034 1.091 0 4.96 2.033 9.444 5.311 12.667l0.003 0.002c3.367 3.271 7.968 5.288 13.040 5.288 0.197 0 0.393-0.003 0.589-0.009l-0.029 0.001c0.739-0.034 1.607-0.053 2.478-0.053 22.588 0 42.164 12.894 51.769 31.724l0.152 0.329c2.4 4.513 6.482 7.864 11.389 9.248l0.131 0.032c1.379 0.377 2.962 0.594 4.595 0.594 3.711 0 7.16-1.118 10.030-3.035l-0.066 0.041c8.876-5.729 19.721-9.134 31.36-9.134s22.484 3.405 31.591 9.273l-0.231-0.139c2.787 1.873 6.218 2.99 9.91 2.99 6.961 0 12.996-3.969 15.963-9.768l0.047-0.101c9.845-19.162 29.475-32.045 52.115-32.045 0.804 0 1.604 0.016 2.399 0.048l-0.114-0.004c0.195 0.007 0.423 0.011 0.653 0.011 5.094 0 9.717-2.017 13.113-5.297l-0.006 0.005c3.281-3.225 5.314-7.709 5.314-12.669 0-0.384-0.012-0.765-0.036-1.143l0.003 0.052c-0.028-0.682-0.045-1.481-0.045-2.285 0-22.64 12.883-42.27 31.717-51.962l0.328-0.153c4.499-2.37 7.816-6.472 9.093-11.396l0.027-0.124c0.379-1.389 0.597-2.984 0.597-4.63 0-3.625-1.058-7.003-2.881-9.843l0.044 0.073c-5.725-8.904-9.126-19.775-9.126-31.44s3.401-22.535 9.266-31.674l-0.14 0.234c1.591-2.68 2.531-5.909 2.531-9.357 0-1.679-0.223-3.306-0.641-4.853l0.030 0.13zM907.040 584.96c-3.595 3.621-8.576 5.862-14.080 5.862s-10.485-2.241-14.079-5.861l-0.001-0.001-66.4-66.24-26.4 26.4c-3.624 3.624-8.63 5.865-14.16 5.865-11.060 0-20.025-8.966-20.025-20.025 0-5.53 2.241-10.536 5.865-14.16v0l40.48-40.64c3.68-3.564 8.703-5.76 14.239-5.76 0 0 0.001 0 0.001 0v0c0.030 0 0.066 0 0.102 0 5.453 0 10.393 2.2 13.979 5.761l79.999 79.999c3.962 3.639 6.436 8.844 6.436 14.627 0 5.55-2.279 10.569-5.953 14.169l-0.003 0.003zM244.16 718.080c-3.603 3.669-8.616 5.943-14.16 5.943s-10.557-2.274-14.157-5.94l-0.003-0.003c-3.582-3.613-5.796-8.588-5.796-14.080 0-11.046 8.954-20 20-20 0.013 0 0.025 0 0.038 0h-0.002c0.003 0 0.006 0 0.010 0 5.512 0 10.494 2.266 14.067 5.916l0.003 0.004c3.66 3.577 5.93 8.563 5.93 14.080s-2.27 10.503-5.926 14.076l-0.004 0.004zM401.92 724h-97.92c-11.046 0-20-8.954-20-20s8.954-20 20-20v0h97.28c11.046 0 20 8.954 20 20s-8.954 20-20 20v0zM605.6 372h-228.64c-11.046 0-20-8.954-20-20s8.954-20 20-20v0h228.64c11.046 0 20 8.954 20 20s-8.954 20-20 20v0z" />
<glyph unicode="&#xe5;" glyph-name="subpage_big_icon_1" d="M1018.080 310.24c-3.613 3.582-8.588 5.796-14.080 5.796-11.046 0-20-8.954-20-20 0-0.013 0-0.025 0-0.038v0.002c0-0.003 0-0.006 0-0.010 0-5.512 2.266-10.494 5.916-14.067l0.004-0.003c3.577-3.66 8.563-5.93 14.080-5.93s10.503 2.27 14.076 5.926l0.004 0.004c3.669 3.603 5.943 8.616 5.943 14.16s-2.274 10.557-5.94 14.157l-0.003 0.003zM1004 234.080c-11.046 0-20-8.954-20-20v0-137.92c0-33.137-26.863-60-60-60v0h-824c-31.635 0.089-57.522 24.583-59.828 55.641l-0.012 0.199h263.84c11.046 0 20 8.954 20 20s-8.954 20-20 20v0h-264v324.8c17.728-14.255 40.51-22.88 65.306-22.88 0.103 0 0.207 0 0.31 0h67.344v-32.8c0 0 0 0 0 0 0-45.275 36.657-81.989 81.911-82.080h5.769c45.332 0 82.080 36.748 82.080 82.080v0 32.8h338.56v-32.8c0-45.332 36.748-82.080 82.080-82.080v0h5.76c45.263 0.091 81.92 36.805 81.92 82.080 0 0 0 0 0 0v0 32.8h67.36c0.087 0 0.19 0 0.294 0 24.796 0 47.578 8.625 65.51 23.039l-0.203-0.158v-62.88c0-11.046 8.954-20 20-20s20 8.954 20 20v0 266.24c-0.091 55.192-44.808 99.909-99.991 100h-183.689v75.84c-0.091 57.401-46.599 103.909-103.991 104h-248.649c-57.401-0.091-103.909-46.599-104-103.991v-75.849h-183.68c-55.192-0.091-99.909-44.808-100-99.991v-564.009c0-0.047 0-0.104 0-0.16 0-55.228 44.772-100 100-100h824c0 0 0 0 0 0 55.228 0 100 44.772 100 100 0 0.056 0 0.112 0 0.169v-0.009 137.92c0 11.046-8.954 20-20 20v0zM302.72 381.12c0-23.24-18.84-42.080-42.080-42.080v0h-5.76c0 0 0 0 0 0-23.152 0-41.92 18.768-41.92 41.92 0 0.056 0 0.112 0 0.169v-0.009 72.96h89.76zM811.040 381.12c0-0.048 0-0.104 0-0.16 0-23.152-18.768-41.92-41.92-41.92 0 0 0 0 0 0h-5.76c-23.24 0-42.080 18.84-42.080 42.080v0 72.96h89.76zM323.68 816c0 35.346 28.654 64 64 64v0h248.64c35.346 0 64-28.654 64-64v0-75.84h-40v80c-0.089 10.978-9.009 19.843-19.999 19.843-0.113 0-0.225-0.001-0.338-0.003h-255.983c-11.046 0-20-8.954-20-20v0-80h-40zM620.32 800v-59.84h-216.64v59.84zM40 640.16c0 33.137 26.863 60 60 60v0h824c33.137 0 60-26.863 60-60v0-120.16c-0.091-36.161-29.426-65.44-65.6-65.44 0 0 0 0 0 0h-67.36v14.24c-0.090 14.279-11.641 25.83-25.911 25.92h-117.769c0 0 0 0 0 0-14.347 0-25.989-11.585-26.079-25.911v-14.249h-338.56v14.24c-0.091 14.335-11.732 25.92-26.080 25.92 0 0 0 0-0.001 0h-117.76c-14.279-0.090-25.83-11.641-25.92-25.911v-14.249h-67.36c0 0 0 0 0 0-36.174 0-65.509 29.279-65.6 65.431v0.009zM384 112.16v0c-11.090 0-20.080-8.99-20.080-20.080s8.99-20.080 20.080-20.080v0c11.046 0 20 8.954 20 20s-8.954 20-20 20v0z" />
<glyph unicode="&#xe6;" d="M1024 448c0-282.77-229.23-512-512-512s-512 229.23-512 512c0 282.77 229.23 512 512 512s512-229.23 512-512z" />
<glyph unicode="&#xe7;" d="M896 448c0-212.077-171.923-384-384-384s-384 171.923-384 384c0 212.077 171.923 384 384 384s384-171.923 384-384z" />
<glyph unicode="&#xe8;" d="M664.96 437.92l-220.8-148.96c-2.427-1.652-5.41-2.66-8.625-2.72h-0.015c-2.795 0.033-5.431 0.678-7.792 1.808l0.112-0.048c-5.091 2.677-8.528 7.884-8.64 13.905v0.015l-6.4 288c-0.002 0.087-0.003 0.189-0.003 0.291 0 5.957 3.255 11.153 8.084 13.908l0.079 0.041c2.295 1.348 5.054 2.144 8 2.144s5.705-0.796 8.076-2.184l-0.076 0.041 227.36-140.16c4.53-2.79 7.539-7.668 7.68-13.26v-0.020c-0.158-5.319-2.888-9.969-6.985-12.764l-0.055-0.036z" />
<glyph unicode="&#xe9;" glyph-name="placeholder_1" d="M678.912 213.504c6.588-4.371 14.678-6.974 23.376-6.974 14.854 0 27.935 7.59 35.576 19.104l0.098 0.158c98.304 153.941 149.504 270.677 149.504 350.208 0 212.077-171.923 384-384 384s-384-171.923-384-384v0c0-198.315 315.392-580.267 351.232-624.64 8.003-9.429 19.864-15.372 33.112-15.372 0.359 0 0.717 0.004 1.074 0.013l-0.053-0.001c0.444-0.017 0.965-0.026 1.488-0.026 13.109 0 24.825 5.959 32.589 15.316l0.056 0.070c2.048 2.389 48.469 58.027 107.52 138.581 3.804 6.256 6.055 13.82 6.055 21.909 0 23.564-19.103 42.667-42.667 42.667-12.54 0-23.816-5.41-31.623-14.023l-0.032-0.036c-27.648-37.888-52.907-70.315-71.339-93.867-109.568 133.461-302.080 401.408-302.080 529.408 0 164.949 133.718 298.667 298.667 298.667s298.667-133.718 298.667-298.667v0c0-61.099-48.128-168.96-136.533-303.445-4.186-6.485-6.674-14.408-6.674-22.912 0-15.156 7.903-28.467 19.812-36.036l0.173-0.103zM354.304 618.667c0-0.101 0-0.221 0-0.341 0-82.569 66.935-149.504 149.504-149.504s149.504 66.935 149.504 149.504c0 82.569-66.935 149.504-149.504 149.504-0.12 0-0.24 0-0.359 0h0.018c-82.302-0.194-148.969-66.861-149.163-149.144v-0.018zM567.637 618.667c0.001-0.101 0.001-0.221 0.001-0.341 0-35.44-28.73-64.171-64.171-64.171s-64.171 28.73-64.171 64.171c0 35.44 28.73 64.17 64.17 64.171v0c35.244-0.19 63.787-28.613 64.17-63.793v-0.036z" />
<glyph unicode="&#xe10;" glyph-name="phone_1" d="M204.8-64h597.333c47.128 0 85.333 38.205 85.333 85.333v0 853.333c0 47.128-38.205 85.333-85.333 85.333v0h-597.333c-47.128 0-85.333-38.205-85.333-85.333v0-853.333c0-47.128 38.205-85.333 85.333-85.333v0zM638.976 874.667l-18.432-64.171h-234.155l-18.432 64.171zM204.8 874.667h74.411l24.917-87.381c10.768-35.995 43.458-61.832 82.228-62.122h234.189c38.803 0.29 71.493 26.128 82.104 61.511l0.157 0.611 24.917 87.381h74.411v-853.333h-597.333v853.333zM460.8 85.163h85.333c22.048 2.029 39.18 20.432 39.18 42.837s-17.132 40.809-39.011 42.825l-0.169 0.013h-85.333c-22.048-2.029-39.18-20.432-39.18-42.837s17.132-40.809 39.011-42.825l0.169-0.013z" />
<glyph unicode="&#xe11;" d="M686.694 578.662c0-95.124-77.113-172.237-172.237-172.237s-172.237 77.113-172.237 172.237c0 95.124 77.113 172.237 172.237 172.237s172.237-77.113 172.237-172.237z" />
<glyph unicode="&#xe12;" d="M514.458-64s381.338 432.128 381.338 642.662c0 210.607-170.731 381.338-381.338 381.338s-381.338-170.731-381.338-381.338v0c0-210.534 381.338-642.662 381.338-642.662zM514.458 842.035c145.457 0 263.373-117.916 263.373-263.373s-117.916-263.373-263.373-263.373c-145.457 0-263.373 117.916-263.373 263.373v0c0 0.061 0 0.133 0 0.205 0 145.344 117.824 263.168 263.168 263.168 0.072 0 0.144 0 0.216 0h-0.011z" />
<glyph unicode="&#xe13;" d="M0 960h1024v-1024h-1024v1024z" />
<glyph unicode="&#xe14;" d="M632.32 552.448c-0.826 0.019-1.8 0.030-2.776 0.030-28.978 0-55.707-9.629-77.161-25.863l0.321 0.233c0 31.232-33.792 14.080-111.36 18.688-8.907 0-16.128-7.221-16.128-16.128v0c6.4-302.080-14.336-336.384 16.128-336.384h99.328c28.928 0 10.496 40.704 15.872 174.592 0 55.552 16.128 66.304 43.776 66.304s35.584-21.248 35.584-68.864c5.632-131.584-12.544-172.032 16.128-172.032h99.328c8.907 0 16.128 7.221 16.128 16.128v0c-7.424 166.4 39.168 343.296-135.168 343.296zM734.72 224h-66.816c0 152.32 16.128 240.896-67.584 240.896v0c-95.744 0-76.8-105.472-76.8-240.896h-66.304v288.512h63.488v-27.648c0.441-8.979 7.828-16.091 16.877-16.091 6.206 0 11.631 3.346 14.568 8.332l0.043 0.079c15.842 26.14 44.134 43.34 76.445 43.34 1.295 0 2.584-0.028 3.866-0.082l-0.183 0.006c75.264 0 102.4-36.864 102.4-136.448z" />
<glyph unicode="&#xe15;" d="M395.008 528.384c0 27.648-40.192 11.52-115.712 16.128-30.208 0-9.472-33.792-15.872-336.64 0-8.766 7.106-15.872 15.872-15.872v0h99.584c30.72 0 9.472 33.792 16.128 336.384zM363.008 224h-67.584v288.512h67.584z" />
<glyph unicode="&#xe16;" d="M328.96 704c-97.536 0-97.024-147.712 0-147.712s97.792 147.712 0 147.712zM328.96 588.288c-21.734 1.752-38.708 19.822-38.708 41.856s16.974 40.104 38.559 41.846l0.149 0.010c21.734-1.752 38.708-19.822 38.708-41.856s-16.974-40.104-38.559-41.846l-0.149-0.010z" />
<glyph unicode="&#xe17;" glyph-name="hotline" d="M853.333 576v170.667c0 117.821-95.513 213.333-213.333 213.333v0h-256c-117.821 0-213.333-95.513-213.333-213.333v0-170.667c-94.257 0-170.667-76.41-170.667-170.667v0-42.667c0-94.257 76.41-170.667 170.667-170.667v0h128c23.564 0 42.667 19.103 42.667 42.667v0 298.667c0 23.564-19.103 42.667-42.667 42.667v0h-42.667v170.667c0 70.692 57.308 128 128 128v0h256c70.692 0 128-57.308 128-128v0-170.667h-42.667c-23.564 0-42.667-19.103-42.667-42.667s19.103-42.667 42.667-42.667v0h128c47.128 0 85.333-38.205 85.333-85.333v0-42.667c0-47.128-38.205-85.333-85.333-85.333v0h-85.333v85.333c0 23.564-19.103 42.667-42.667 42.667s-42.667-19.103-42.667-42.667v0-128c0-23.564 19.103-42.667 42.667-42.667v0h42.667v-170.667h-170.667v42.667c0 23.564-19.103 42.667-42.667 42.667s-42.667-19.103-42.667-42.667v0-85.333c0-23.564 19.103-42.667 42.667-42.667v0h256c23.564 0 42.667 19.103 42.667 42.667v0 213.333c94.257 0 170.667 76.41 170.667 170.667v0 42.667c0 94.257-76.41 170.667-170.667 170.667v0zM256 277.333h-85.333c-47.128 0-85.333 38.205-85.333 85.333v0 42.667c0 47.128 38.205 85.333 85.333 85.333v0h85.333z" />
<glyph unicode="&#xe18;" glyph-name="home_big_icon_3" d="M924.032 960h-824.064c-55.211 0-99.968-44.757-99.968-99.968v0-524.032c0-55.211 44.757-99.968 99.968-99.968v0h232.832c0.838-14.466 3.214-28.018 6.979-40.977l-0.323 1.297-113.152-113.024c-3.57-3.625-5.774-8.604-5.774-14.098 0-8.814 5.674-16.303 13.569-19.012l0.141-0.042 75.264-25.6 25.6-75.392c2.291-6.42 7.616-11.237 14.202-12.774l0.134-0.026c0.692-0.090 1.492-0.142 2.304-0.142s1.612 0.051 2.397 0.151l-0.093-0.010c0.024 0 0.053 0 0.082 0 5.483 0 10.44 2.253 13.995 5.885l125.187 125.187c5.541-0.654 11.96-1.028 18.466-1.028 0.393 0 0.786 0.001 1.179 0.004h-0.060c5.632 0 11.136 0 16.64 0.768l124.928-124.928c3.578-3.635 8.552-5.888 14.052-5.888 0.010 0 0.020 0 0.029 0h-0.002c0.692-0.090 1.492-0.142 2.304-0.142s1.612 0.051 2.397 0.151l-0.093-0.010c6.75 1.569 12.109 6.378 14.419 12.661l0.045 0.139 25.6 75.392 75.392 25.6c7.986 2.78 13.614 10.244 13.614 19.022 0 5.51-2.217 10.501-5.808 14.132l0.002-0.002-110.72 110.592c3.366 12.6 5.366 27.091 5.503 42.028l0.001 0.084h232.832c55.211 0 99.968 44.757 99.968 99.968v0 524.032c0 55.211-44.757 99.968-99.968 99.968v0zM361.856-6.912l-18.048 54.144c-1.986 6.102-6.698 10.814-12.661 12.761l-0.139 0.039-54.144 18.048 78.848 78.848c20.682-35.616 52.167-63.008 89.916-78.036l1.22-0.428zM371.968 246.016c0 77.338 62.694 140.032 140.032 140.032s140.032-62.694 140.032-140.032c0-77.338-62.694-140.032-140.032-140.032v0c-77.163 0.433-139.599 62.869-140.032 139.991v0.041zM743.808 77.824l-54.144-18.048c-6.080-2.023-10.777-6.72-12.759-12.659l-0.041-0.141-18.048-54.144-84.096 83.968c39.206 14.852 71.055 41.696 91.834 75.993l0.454 0.807zM983.936 336c0 0 0 0 0 0 0-33.11-26.804-59.959-59.897-60.032h-234.503c-14.988 85.606-88.761 149.838-177.536 149.838s-162.548-64.232-177.379-148.758l-0.157-1.081h-234.496c-33.125 0.073-59.959 26.907-60.032 60.025v524.039c0.073 33.125 26.907 59.959 60.025 60.032h824.071c33.1-0.073 59.904-26.922 59.904-60.032 0 0 0 0 0 0v0zM391.936 780.032h240c11.028 0 19.968 8.94 19.968 19.968s-8.94 19.968-19.968 19.968h-240c-11.028 0-19.968-8.94-19.968-19.968s8.94-19.968 19.968-19.968v0zM236.032 700.032h240c11.028 0 19.968 8.94 19.968 19.968s-8.94 19.968-19.968 19.968v0h-240c-11.028 0-19.968-8.94-19.968-19.968s8.94-19.968 19.968-19.968v0zM535.936 720c0 0 0 0 0 0 0-11.028 8.94-19.968 19.968-19.968 0.045 0 0.090 0 0.135 0h231.929c11.028 0 19.968 8.94 19.968 19.968s-8.94 19.968-19.968 19.968v0h-231.936c-0.038 0-0.083 0-0.128 0-11.028 0-19.968-8.94-19.968-19.968 0 0 0 0 0 0v0zM892.032 600.064h-760.064c-10.387-0.856-18.493-9.497-18.493-20.032s8.106-19.176 18.421-20.027l0.072-0.005h760.064c10.387 0.856 18.493 9.497 18.493 20.032s-8.106 19.176-18.421 20.027l-0.072 0.005zM512 520.064c-0.038 0-0.083 0-0.128 0-11.099 0-20.096-8.997-20.096-20.096s8.997-20.096 20.096-20.096c11.099 0 20.096 8.997 20.096 20.096v0c0 0 0 0 0 0 0 11.054-8.924 20.023-19.961 20.096h-0.007zM432 520.064h-300.032c-10.387-0.856-18.493-9.497-18.493-20.032s8.106-19.176 18.421-20.027l0.072-0.005h300.032c10.387 0.856 18.493 9.497 18.493 20.032s-8.106 19.176-18.421 20.027l-0.072 0.005zM892.032 520.064h-300.032c-10.387-0.856-18.493-9.497-18.493-20.032s8.106-19.176 18.421-20.027l0.072-0.005h300.032c10.387 0.856 18.493 9.497 18.493 20.032s-8.106 19.176-18.421 20.027l-0.072 0.005zM887.936 440.064h-192c-10.387-0.856-18.493-9.497-18.493-20.032s8.106-19.176 18.421-20.027l0.072-0.005h192c0.48-0.041 1.039-0.064 1.603-0.064 11.099 0 20.096 8.997 20.096 20.096s-8.997 20.096-20.096 20.096c-0.564 0-1.123-0.023-1.675-0.069l0.072 0.005zM512 345.6c-55.211 0-99.968-44.757-99.968-99.968s44.757-99.968 99.968-99.968c55.211 0 99.968 44.757 99.968 99.968v0c0 55.211-44.757 99.968-99.968 99.968v0zM512 185.6c-33.155 0-60.032 26.877-60.032 60.032s26.877 60.032 60.032 60.032c33.155 0 60.032-26.877 60.032-60.032v0c-0.289-32.96-27.041-59.577-60.025-59.648h-0.007z" />
<glyph unicode="&#xe19;" glyph-name="home_big_icon_2" d="M1004.032 960h-984.064c-11.028 0-19.968-8.94-19.968-19.968v0-984.064c0-11.028 8.94-19.968 19.968-19.968v0h984.064c11.028 0 19.968 8.94 19.968 19.968v0 984.064c0 11.028-8.94 19.968-19.968 19.968v0zM984.064 467.968h-452.096v451.968h452.096zM40.064 919.936h451.968v-451.968h-451.968zM40.064 428.032h451.968v-452.096h-451.968zM984.064-24.064h-452.096v452.096h452.096zM393.856 800.128l-169.856-169.856-85.888 85.888c-3.62 3.62-8.62 5.859-14.144 5.859-11.047 0-20.003-8.955-20.003-20.003 0-5.524 2.239-10.524 5.859-14.144v0l100.096-99.968c3.595-3.621 8.576-5.862 14.080-5.862s10.485 2.241 14.079 5.861l0.001 0.001 184.32 183.936c3.62 3.62 5.859 8.62 5.859 14.144 0 11.047-8.955 20.003-20.003 20.003-5.524 0-10.524-2.239-14.144-5.859v0zM678.4 633.984h239.616c10.387 0.856 18.493 9.497 18.493 20.032s-8.106 19.176-18.421 20.027l-0.072 0.005h-239.616c-10.387-0.856-18.493-9.497-18.493-20.032s8.106-19.176 18.421-20.027l0.072-0.005zM598.016 633.984c0.038 0 0.083 0 0.128 0 11.099 0 20.096 8.997 20.096 20.096s-8.997 20.096-20.096 20.096c-11.099 0-20.096-8.997-20.096-20.096 0-0.045 0-0.090 0-0.134v0.007c0-11.028 8.94-19.968 19.968-19.968v0zM678.4 713.984h239.616c10.387 0.856 18.493 9.497 18.493 20.032s-8.106 19.176-18.421 20.027l-0.072 0.005h-239.616c-10.387-0.856-18.493-9.497-18.493-20.032s8.106-19.176 18.421-20.027l0.072-0.005zM598.016 713.984c0.038 0 0.083 0 0.128 0 11.099 0 20.096 8.997 20.096 20.096s-8.997 20.096-20.096 20.096c-11.099 0-20.096-8.997-20.096-20.096 0-0.045 0-0.090 0-0.134v0.007c0-11.028 8.94-19.968 19.968-19.968v0zM678.4 221.952h239.616c10.387 0.856 18.493 9.497 18.493 20.032s-8.106 19.176-18.421 20.027l-0.072 0.005h-239.616c-10.387-0.856-18.493-9.497-18.493-20.032s8.106-19.176 18.421-20.027l0.072-0.005zM598.016 221.952c0.038 0 0.083 0 0.128 0 11.099 0 20.096 8.997 20.096 20.096s-8.997 20.096-20.096 20.096c-11.099 0-20.096-8.997-20.096-20.096v0c0 0 0 0 0 0 0-11.054 8.924-20.023 19.961-20.096h0.007zM598.016 301.952c0.038 0 0.083 0 0.128 0 11.099 0 20.096 8.997 20.096 20.096s-8.997 20.096-20.096 20.096c-11.099 0-20.096-8.997-20.096-20.096v0c0 0 0 0 0 0 0-11.054 8.924-20.023 19.961-20.096h0.007zM678.4 301.952h239.616c10.387 0.856 18.493 9.497 18.493 20.032s-8.106 19.176-18.421 20.027l-0.072 0.005h-239.616c-10.387-0.856-18.493-9.497-18.493-20.032s8.106-19.176 18.421-20.027l0.072-0.005zM678.4 61.952h239.616c10.387 0.856 18.493 9.497 18.493 20.032s-8.106 19.176-18.421 20.027l-0.072 0.005h-239.616c-10.387-0.856-18.493-9.497-18.493-20.032s8.106-19.176 18.421-20.027l0.072-0.005zM598.016 61.952c0.038 0 0.083 0 0.128 0 11.099 0 20.096 8.997 20.096 20.096s-8.997 20.096-20.096 20.096c-11.099 0-20.096-8.997-20.096-20.096v0c0 0 0 0 0 0 0-11.054 8.924-20.023 19.961-20.096h0.007zM678.4 141.952h239.616c10.387 0.856 18.493 9.497 18.493 20.032s-8.106 19.176-18.421 20.027l-0.072 0.005h-239.616c-10.387-0.856-18.493-9.497-18.493-20.032s8.106-19.176 18.421-20.027l0.072-0.005zM598.016 141.952c0.038 0 0.083 0 0.128 0 11.099 0 20.096 8.997 20.096 20.096s-8.997 20.096-20.096 20.096c-11.099 0-20.096-8.997-20.096-20.096v0c0 0 0 0 0 0 0-11.054 8.924-20.023 19.961-20.096h0.007zM105.984 262.016c-0.038 0-0.083 0-0.128 0-11.099 0-20.096-8.997-20.096-20.096s8.997-20.096 20.096-20.096c11.099 0 20.096 8.997 20.096 20.096 0 0.045 0 0.090 0 0.134v-0.007c0 11.028-8.94 19.968-19.968 19.968v0zM425.984 262.016h-240c-10.387-0.856-18.493-9.497-18.493-20.032s8.106-19.176 18.421-20.027l0.072-0.005h240c10.387 0.856 18.493 9.497 18.493 20.032s-8.106 19.176-18.421 20.027l-0.072 0.005zM105.984 342.016c-0.038 0-0.083 0-0.128 0-11.099 0-20.096-8.997-20.096-20.096s8.997-20.096 20.096-20.096c11.099 0 20.096 8.997 20.096 20.096 0 0.045 0 0.090 0 0.134v-0.007c0 11.028-8.94 19.968-19.968 19.968v0zM425.984 342.016h-240c-10.387-0.856-18.493-9.497-18.493-20.032s8.106-19.176 18.421-20.027l0.072-0.005h240c10.387 0.856 18.493 9.497 18.493 20.032s-8.106 19.176-18.421 20.027l-0.072 0.005z" />
<glyph unicode="&#xe20;" glyph-name="home_big_icon_1" d="M924.032 960h-520.064c-55.211 0-99.968-44.757-99.968-99.968v0-179.968h-204.032c-55.226-0.073-99.968-44.859-99.968-100.096 0 0 0 0 0 0v0-423.936c0-55.211 44.757-99.968 99.968-99.968v0h40.064v-100.096c0.089-8.368 5.312-15.495 12.664-18.385l0.136-0.047c2.27-0.955 4.907-1.518 7.673-1.536h0.007c0.024 0 0.053 0 0.082 0 5.483 0 10.44 2.253 13.995 5.885l114.179 114.179h331.264c55.211 0 99.968 44.757 99.968 99.968v0 179.968h39.936v-99.968c0.145-8.385 5.338-15.521 12.664-18.511l0.136-0.049c2.26-0.971 4.891-1.536 7.654-1.536 5.517 0 10.508 2.252 14.104 5.886l0.002 0.002 114.304 114.176h31.744c51.2 0 83.968 39.296 83.968 99.968v424.064c0 0 0 0.001 0 0.001 0 55.211-44.757 99.968-99.968 99.968-0.18 0-0.36 0-0.54-0.001h0.028zM679.936 156.032c0 0 0 0 0 0 0-33.11-26.804-59.959-59.897-60.032h-340.103c-0.024 0-0.053 0-0.082 0-5.483 0-10.44-2.253-13.995-5.885l-85.891-85.891v71.808c0 11.028-8.94 19.968-19.968 19.968h-60.032c-33.125 0.073-59.959 26.907-60.032 60.025v423.943c0.073 33.125 26.907 59.959 60.025 60.032h520.071c33.1-0.073 59.904-26.922 59.904-60.032 0 0 0 0 0 0v0zM983.936 435.968c0-22.4-5.632-59.904-43.904-59.904h-40.064c-5.502-0.037-10.474-2.28-14.080-5.888l-85.888-85.888v71.68c0 0.038 0 0.083 0 0.128 0 11.028-8.94 19.968-19.968 19.968 0 0 0 0 0 0h-60.032v144h124.032c11.028 0 19.968 8.94 19.968 19.968s-8.94 19.968-19.968 19.968v0h-124.032v19.968c0 55.237-44.742 100.023-99.961 100.096h-276.103v179.968c0.073 33.125 26.907 59.959 60.025 60.032h520.071c33.1-0.073 59.904-26.922 59.904-60.032 0 0 0 0 0 0v0zM844.032 800h-360.064c-11.028 0-19.968-8.94-19.968-19.968s8.94-19.968 19.968-19.968v0h360.064c11.028 0 19.968 8.94 19.968 19.968s-8.94 19.968-19.968 19.968v0zM844.032 680.064h-80c-0.48 0.041-1.039 0.064-1.603 0.064-11.099 0-20.096-8.997-20.096-20.096s8.997-20.096 20.096-20.096c0.564 0 1.123 0.023 1.675 0.069l-0.072-0.005h80c10.387 0.856 18.493 9.497 18.493 20.032s-8.106 19.176-18.421 20.027l-0.072 0.005zM179.968 480c0.038 0 0.083 0 0.128 0 11.099 0 20.096 8.997 20.096 20.096s-8.997 20.096-20.096 20.096c-11.099 0-20.096-8.997-20.096-20.096 0-0.045 0-0.090 0-0.134v0.007c0-11.028 8.94-19.968 19.968-19.968v0zM540.032 520.064h-280.064c-10.387-0.856-18.493-9.497-18.493-20.032s8.106-19.176 18.421-20.027l0.072-0.005h280.064c10.387 0.856 18.493 9.497 18.493 20.032s-8.106 19.176-18.421 20.027l-0.072 0.005zM540.032 400h-200.064c-11.028 0-19.968-8.94-19.968-19.968s8.94-19.968 19.968-19.968h200.064c11.028 0 19.968 8.94 19.968 19.968s-8.94 19.968-19.968 19.968v0zM179.968 360.064h80c11.028 0 19.968 8.94 19.968 19.968s-8.94 19.968-19.968 19.968h-80c-11.028 0-19.968-8.94-19.968-19.968s8.94-19.968 19.968-19.968v0zM380.032 280.064h-196.096c-10.387-0.856-18.493-9.497-18.493-20.032s8.106-19.176 18.421-20.027l0.072-0.005h196.096c10.387 0.856 18.493 9.497 18.493 20.032s-8.106 19.176-18.421 20.027l-0.072 0.005z" />
<glyph unicode="&#xe21;" d="M0 960h1024v-1024h-1024v1024z" />
<glyph unicode="&#xe22;" d="M263.424 284.416c45.882-29.238 101.804-46.6 161.782-46.6 85.006 0 161.866 34.875 217.053 91.098l0.045 0.046c50.424 52.93 81.448 124.738 81.448 203.792 0 1.705-0.014 3.406-0.043 5.104l0.003-0.256c24.575 20.122 41.049 49.344 44.249 82.449l0.039 0.495c-0.039 8.878-7.245 16.060-16.128 16.060-3.021 0-5.848-0.831-8.266-2.276l0.074 0.041c-10.41-7.070-23.254-11.287-37.083-11.287-6.206 0-12.214 0.849-17.914 2.438l0.468-0.111c-20.798 20.352-49.295 32.911-80.724 32.911-20.549 0-39.843-5.368-56.558-14.778l0.579 0.3c-36.086-18.915-60.283-56.11-60.283-98.956 0-1.842 0.045-3.673 0.133-5.493l-0.010 0.256c-70.32 8.742-131.16 43.664-173.472 94.541l-0.352 0.435c-2.961 3.244-7.207 5.271-11.927 5.271-5.738 0-10.776-2.996-13.634-7.509l-0.039-0.066c-10.098-16.528-16.077-36.527-16.077-57.923 0-19.58 5.007-37.99 13.81-54.020l-0.293 0.583c-8.024-1.283-14.081-8.155-14.081-16.442 0-0.070 0-0.139 0.001-0.208v0.011c0.012-34.363 15.34-65.144 39.528-85.889l0.152-0.127c-3.067-2.941-4.974-7.072-4.974-11.649 0-1.879 0.321-3.683 0.912-5.36l-0.035 0.113c10.982-32.035 34.612-57.252 64.775-70.112l0.761-0.288c-23.746-11.58-51.665-18.351-81.165-18.351-7.482 0-14.862 0.435-22.116 1.283l0.882-0.084c-0.539 0.064-1.163 0.1-1.795 0.1-8.907 0-16.128-7.221-16.128-16.128 0-5.568 2.822-10.478 7.114-13.376l0.057-0.036zM429.056 325.632c3.859 2.977 6.321 7.603 6.321 12.803 0 8.789-7.031 15.937-15.775 16.124h-0.018c-27.075 0.513-50.942 13.803-65.886 34.074l-0.162 0.23c8.154 0.638 15.663 1.908 22.929 3.784l-0.913-0.2c7.279 1.659 12.63 8.077 12.63 15.744s-5.35 14.085-12.521 15.723l-0.108 0.021c-29.939 6.224-53.661 27.82-62.81 55.986l-0.166 0.59c7.635-1.959 16.437-3.163 25.494-3.326l0.106-0.002c0.152-0.005 0.33-0.008 0.509-0.008 8.907 0 16.128 7.221 16.128 16.128 0 5.674-2.93 10.663-7.359 13.538l-0.063 0.038c-22.297 14.534-36.829 39.35-36.829 67.562 0 7.103 0.921 13.991 2.651 20.551l-0.126-0.56c51.202-51.677 120.963-84.889 198.45-88.803l0.718-0.029c0.198-0.009 0.429-0.014 0.662-0.014 8.907 0 16.128 7.221 16.128 16.128 0 1.276-0.148 2.517-0.428 3.707l0.022-0.109c-1.526 5.798-2.403 12.455-2.403 19.316 0 30.706 17.552 57.312 43.17 70.333l0.448 0.207c11.729 6.772 25.799 10.768 40.802 10.768 23.768 0 45.194-10.028 60.277-26.084l0.041-0.044c11.029-5.846 24.111-9.279 37.995-9.279 7.331 0 14.438 0.957 21.204 2.753l-0.575-0.13c-7.38-13.81-17.278-25.344-29.182-34.372l-0.258-0.188c-4.213-2.951-6.933-7.783-6.933-13.25 0-0.292 0.008-0.582 0.023-0.87l-0.002 0.040c0.18-3.63 0.282-7.883 0.282-12.159 0-70.32-27.715-134.167-72.819-181.213l0.088 0.093c-48.372-50.841-116.538-82.462-192.090-82.462-1.409 0-2.815 0.011-4.218 0.033l0.212-0.003c-0.139 0-0.305 0-0.47 0-30.991 0-60.756 5.25-88.454 14.908l1.884-0.572c35.004 6.823 65.835 21.268 91.871 41.575l-0.479-0.359z" />
<glyph unicode="&#xe23;" glyph-name="green_placeholder" d="M687.616 213.504c6.566-4.363 14.633-6.961 23.306-6.961 14.821 0 27.871 7.588 35.475 19.091l0.098 0.158c98.304 152.576 149.504 270.336 149.504 350.208 0 212.077-171.923 384-384 384s-384-171.923-384-384v0c0-198.144 315.392-581.632 351.232-624.64 7.85-9.413 19.583-15.36 32.704-15.36 0.023 0 0.045 0 0.068 0h-0.003c0.019 0 0.042 0 0.064 0 13.121 0 24.854 5.947 32.649 15.292l0.055 0.068s48.64 57.856 107.52 138.752c5.121 6.935 8.196 15.653 8.196 25.089 0 14.036-6.805 26.483-17.296 34.221l-0.117 0.082c-7.051 5.258-15.936 8.418-25.558 8.418-13.986 0-26.413-6.676-34.268-17.016l-0.077-0.106c-27.648-37.888-51.2-70.144-71.168-93.696-106.496 133.12-298.496 400.896-298.496 528.896 0 164.855 133.641 298.496 298.496 298.496s298.496-133.641 298.496-298.496v0c0-60.928-48.128-168.96-135.68-303.616-4.269-6.515-6.809-14.498-6.809-23.073 0-14.972 7.743-28.136 19.443-35.706l0.166-0.101zM362.496 618.496c0-82.569 66.935-149.504 149.504-149.504s149.504 66.935 149.504 149.504c0 82.569-66.935 149.504-149.504 149.504v0c-82.569 0-149.504-66.935-149.504-149.504v0zM576 618.496c0-35.346-28.654-64-64-64s-64 28.654-64 64c0 35.346 28.654 64 64 64v0c35.346 0 64-28.654 64-64v0z" />
<glyph unicode="&#xe24;" glyph-name="green_phone" d="M213.504-64h596.992c47.223 0 85.504 38.281 85.504 85.504v0 852.992c0 47.223-38.281 85.504-85.504 85.504h-596.992c-47.223 0-85.504-38.281-85.504-85.504v0-852.992c0-47.223 38.281-85.504 85.504-85.504v0zM647.68 874.496l-18.432-64h-234.496l-18.432 64zM213.504 874.496h74.24l25.088-87.040c10.389-36.038 43.073-61.952 81.81-61.952 0.039 0 0.078 0 0.117 0h234.49c0.033 0 0.072 0 0.11 0 38.736 0 71.42 25.914 81.661 61.352l0.149 0.6 25.088 87.040h74.24v-852.992h-596.992v852.992zM469.504 85.504h84.992c23.47 0 42.496 19.026 42.496 42.496s-19.026 42.496-42.496 42.496h-84.992c-23.47 0-42.496-19.026-42.496-42.496s19.026-42.496 42.496-42.496v0z" />
<glyph unicode="&#xe25;" glyph-name="green_organizer" d="M810.496 448h-90.112c55.618 54.268 90.112 129.965 90.112 213.719 0 164.855-133.641 298.496-298.496 298.496s-298.496-133.641-298.496-298.496c0-83.754 34.494-159.451 90.051-213.66l0.061-0.059h-90.112c-117.915 0-213.504-95.589-213.504-213.504v0-42.496c0-23.47 19.026-42.496 42.496-42.496v0c0.001 0 0.002 0 0.003 0 23.573 0 42.716 18.965 43.005 42.469v42.523c0 70.692 57.308 128 128 128v0h596.992c70.692 0 128-57.308 128-128v0-256c0.289-23.531 19.432-42.496 43.005-42.496 0.001 0 0.002 0 0.003 0v0c23.47 0 42.496 19.026 42.496 42.496v0 256c0 117.915-95.589 213.504-213.504 213.504v0zM298.496 661.504c0 117.915 95.589 213.504 213.504 213.504s213.504-95.589 213.504-213.504c0-117.915-95.589-213.504-213.504-213.504v0c-117.915 0-213.504 95.589-213.504 213.504v0zM42.496-64c0.001 0 0.002 0 0.003 0 23.573 0 42.716 18.965 43.005 42.469v43.035c-0.289 23.531-19.432 42.496-43.005 42.496-0.001 0-0.002 0-0.003 0v0c-23.47 0-42.496-19.026-42.496-42.496v0-43.008c0-23.47 19.026-42.496 42.496-42.496v0z" />
<glyph unicode="&#xe26;" d="M0 960h1024v-1024h-1024v1024z" />
<glyph unicode="&#xe27;" d="M632.32 552.448c-0.826 0.019-1.8 0.030-2.776 0.030-28.978 0-55.707-9.629-77.161-25.863l0.321 0.233c0 31.232-33.792 14.080-111.36 18.688-8.907 0-16.128-7.221-16.128-16.128v0c6.4-302.080-14.336-336.384 16.128-336.384h99.328c28.928 0 10.496 40.704 15.872 174.592 0 55.552 16.128 66.304 43.776 66.304s35.584-21.248 35.584-68.864c5.632-131.584-12.544-172.032 16.128-172.032h99.328c8.907 0 16.128 7.221 16.128 16.128v0c-7.424 166.4 39.168 343.296-135.168 343.296zM734.72 224h-66.816c0 152.32 16.128 240.896-67.584 240.896v0c-95.744 0-76.8-105.472-76.8-240.896h-66.304v288.512h63.488v-27.648c0.441-8.979 7.828-16.091 16.877-16.091 6.206 0 11.631 3.346 14.568 8.332l0.043 0.079c15.842 26.14 44.134 43.34 76.445 43.34 1.295 0 2.584-0.028 3.866-0.082l-0.183 0.006c75.264 0 102.4-36.864 102.4-136.448z" />
<glyph unicode="&#xe28;" d="M395.008 528.384c0 27.648-40.192 11.52-115.712 16.128-30.208 0-9.472-33.792-15.872-336.64 0-8.766 7.106-15.872 15.872-15.872v0h99.584c30.72 0 9.472 33.792 16.128 336.384zM363.008 224h-67.584v288.512h67.584z" />
<glyph unicode="&#xe29;" d="M328.96 704c-97.536 0-97.024-147.712 0-147.712s97.792 147.712 0 147.712zM328.96 588.288c-21.734 1.752-38.708 19.822-38.708 41.856s16.974 40.104 38.559 41.846l0.149 0.010c21.734-1.752 38.708-19.822 38.708-41.856s-16.974-40.104-38.559-41.846l-0.149-0.010z" />
<glyph unicode="&#xe30;" d="M0 960h1024v-1024h-1024v1024z" />
<glyph unicode="&#xe31;" d="M391.936 406.784h53.76v-198.656c0-0.010 0-0.021 0-0.033 0-8.547 6.648-15.541 15.056-16.093l0.048-0.003h85.248c8.907 0 16.128 7.221 16.128 16.128v0 198.656h51.2c8.057 0.047 14.71 5.993 15.861 13.736l0.011 0.088 10.752 85.504c0.085 0.615 0.133 1.326 0.133 2.049 0 8.766-7.106 15.872-15.872 15.872-0.047 0-0.093 0-0.14-0.001h-60.921c2.304 52.736-9.216 68.352 25.6 68.352 23.040 2.816 59.648-8.96 59.648 15.872v76.8c0 0.039 0.001 0.086 0.001 0.133 0 8.044-5.984 14.69-13.743 15.73l-0.081 0.009c-17.478 1.997-37.733 3.136-58.255 3.136-2.92 0-5.835-0.023-8.744-0.069l0.439 0.005c-149.504 0-118.528-165.888-122.368-179.2h-53.76c-8.796-0.144-15.872-7.309-15.872-16.126 0-0.001 0-0.001 0-0.002v0-86.272c0-8.766 7.106-15.872 15.872-15.872v0zM408.064 492.032h52.736c8.766 0 15.872 7.106 15.872 15.872v0 68.096c0 61.44 33.024 96.768 90.368 96.768 18.944 0 36.096 0 47.872-1.792v-45.824c-8.448-4.352-84.736 18.688-84.736-57.6v-58.88c0-8.766 7.106-15.872 15.872-15.872v0h60.672l-6.656-53.504h-52.992c-8.766 0-15.872-7.106-15.872-15.872v0-198.656h-53.504v197.632c0 0.001 0 0.001 0 0.002 0 8.817-7.076 15.982-15.858 16.126h-53.774z" />
<glyph unicode="&#xe32;" glyph-name="green_email" d="M1024 788.992v0c0.253 1.845 0.398 3.978 0.398 6.144s-0.145 4.299-0.425 6.388l0.027-0.244c-1.35 4.113-3.265 7.682-5.694 10.836l0.062-0.084c-2.19 2.77-4.722 5.14-7.564 7.093l-0.116 0.075c-2.944 2.257-6.327 4.157-9.966 5.54l-0.274 0.092h-7.168c-1.769 0.255-3.811 0.4-5.888 0.4s-4.119-0.145-6.118-0.427l0.23 0.027h-939.008c-3.369 2.886-7.26 5.298-11.488 7.062l-0.288 0.106c-3.954-1.563-7.325-3.282-10.506-5.275l0.266 0.155c-4.615-2.867-8.397-6.649-11.18-11.119l-0.084-0.145c-2.891-3.465-5.166-7.559-6.586-12.034l-0.070-0.254c-1.457-4.094-2.38-8.822-2.558-13.74l-0.002-0.084v-683.008c0-23.47 19.026-42.496 42.496-42.496v0h128c0.001 0 0.002 0 0.003 0 23.573 0 42.716 18.965 43.005 42.469v0.027c-0.285 23.637-19.371 42.723-42.981 43.008h-85.019v556.032l401.408-291.84c7.033-5.353 15.94-8.576 25.6-8.576s18.567 3.223 25.704 8.652l-0.104-0.076 401.408 291.84v-556.032h-598.016c-23.637-0.285-42.723-19.371-43.008-42.981v-0.027c0.289-23.531 19.432-42.496 43.005-42.496 0.001 0 0.002 0 0.003 0h640c23.47 0 42.496 19.026 42.496 42.496v682.496zM512 500.736l-337.92 245.76h675.84zM810.496 234.496c23.637 0.285 42.723 19.371 43.008 42.981v0.027c-0.289 23.531-19.432 42.496-43.005 42.496-0.001 0-0.002 0-0.003 0h-170.496c-23.47 0-42.496-19.026-42.496-42.496v0c0-0.001 0-0.002 0-0.003 0-23.573 18.965-42.716 42.469-43.005h0.027z" />
<glyph unicode="&#xe33;" glyph-name="green_clock" d="M916.48 690.688c-14.456-7.135-24.224-21.771-24.224-38.689 0-6.784 1.571-13.202 4.369-18.908l-0.112 0.253c26.491-53.471 41.99-116.434 41.99-183.017 0-0.818-0.002-1.635-0.007-2.452l0.001 0.126c0-235.547-190.949-426.496-426.496-426.496s-426.496 190.949-426.496 426.496c0 235.547 190.949 426.496 426.496 426.496v0c0.533 0.002 1.164 0.004 1.795 0.004 99.753 0 191.44-34.537 263.756-92.305l-0.847 0.653c7.757-8.147 18.685-13.214 30.797-13.214 23.47 0 42.496 19.026 42.496 42.496 0 15.987-8.829 29.913-21.876 37.167l-0.217 0.111c-86.102 67.999-196.205 109.073-315.902 109.073-282.77 0-512-229.23-512-512s229.23-512 512-512c282.77 0 512 229.23 512 512 0 0.534-0.001 1.067-0.002 1.601v-0.082c0.001 0.319 0.001 0.697 0.001 1.074 0 80.673-18.904 156.931-52.523 224.586l1.322-2.94c-7.038 14.317-21.518 23.997-38.258 23.997-6.559 0-12.771-1.486-18.318-4.14l0.256 0.11zM512 789.504c-23.531-0.289-42.496-19.432-42.496-43.005 0-0.001 0-0.002 0-0.003v0-298.496c0-23.47 19.026-42.496 42.496-42.496v0h213.504c23.47 0 42.496 19.026 42.496 42.496s-19.026 42.496-42.496 42.496h-171.008v256c0 0.001 0 0.002 0 0.003 0 23.573-18.965 42.716-42.469 43.005h-0.027z" />
<glyph unicode="&#xe34;" glyph-name="green_calendar" d="M981.504 832h-128v85.504c-0.289 23.531-19.432 42.496-43.005 42.496-0.001 0-0.002 0-0.003 0v0c-23.47 0-42.496-19.026-42.496-42.496v0-85.504h-512v85.504c0 23.47-19.026 42.496-42.496 42.496v0c-0.001 0-0.002 0-0.003 0-23.573 0-42.716-18.965-43.005-42.469v-85.531h-128c-23.47 0-42.496-19.026-42.496-42.496v0-811.008c0-23.47 19.026-42.496 42.496-42.496v0h939.008c23.47 0 42.496 19.026 42.496 42.496v0 811.008c0 23.47-19.026 42.496-42.496 42.496v0zM85.504 21.504v468.992h596.992c23.637 0.285 42.723 19.371 43.008 42.981v0.027c-0.289 23.531-19.432 42.496-43.005 42.496-0.001 0-0.002 0-0.003 0h-596.992v170.496h84.992v-42.496c0.289-23.531 19.432-42.496 43.005-42.496 0.001 0 0.002 0 0.003 0v0c23.47 0 42.496 19.026 42.496 42.496v0 42.496h512v-42.496c0-23.47 19.026-42.496 42.496-42.496v0c0.001 0 0.002 0 0.003 0 23.573 0 42.716 18.965 43.005 42.469v42.523h84.992v-170.496h-84.992c-0.001 0-0.002 0-0.003 0-23.573 0-42.716-18.965-43.005-42.469v-0.027c0.285-23.637 19.371-42.723 42.981-43.008h85.019v-468.992zM256 405.504h-42.496c-23.637-0.285-42.723-19.371-43.008-42.981v-0.027c0.289-23.531 19.432-42.496 43.005-42.496 0.001 0 0.002 0 0.003 0h42.496c23.47 0 42.496 19.026 42.496 42.496v0c0 0.001 0 0.002 0 0.003 0 23.573-18.965 42.716-42.469 43.005h-0.027zM448 405.504h-42.496c-23.637-0.285-42.723-19.371-43.008-42.981v-0.027c0.289-23.531 19.432-42.496 43.005-42.496 0.001 0 0.002 0 0.003 0h42.496c23.47 0 42.496 19.026 42.496 42.496v0c0 0.001 0 0.002 0 0.003 0 23.573-18.965 42.716-42.469 43.005h-0.027zM618.496 405.504h-42.496c-23.531-0.289-42.496-19.432-42.496-43.005 0-0.001 0-0.002 0-0.003v0c0-23.47 19.026-42.496 42.496-42.496v0h42.496c0.001 0 0.002 0 0.003 0 23.573 0 42.716 18.965 43.005 42.469v0.027c-0.285 23.637-19.371 42.723-42.981 43.008h-0.027zM810.496 405.504h-42.496c-23.531-0.289-42.496-19.432-42.496-43.005 0-0.001 0-0.002 0-0.003v0c0-23.47 19.026-42.496 42.496-42.496v0h42.496c0.001 0 0.002 0 0.003 0 23.573 0 42.716 18.965 43.005 42.469v0.027c-0.285 23.637-19.371 42.723-42.981 43.008h-0.027zM256 234.496h-42.496c-23.47 0-42.496-19.026-42.496-42.496s19.026-42.496 42.496-42.496h42.496c23.47 0 42.496 19.026 42.496 42.496s-19.026 42.496-42.496 42.496v0zM448 234.496h-42.496c-23.47 0-42.496-19.026-42.496-42.496s19.026-42.496 42.496-42.496h42.496c23.47 0 42.496 19.026 42.496 42.496s-19.026 42.496-42.496 42.496v0zM618.496 234.496h-42.496c-23.47 0-42.496-19.026-42.496-42.496s19.026-42.496 42.496-42.496h42.496c23.47 0 42.496 19.026 42.496 42.496s-19.026 42.496-42.496 42.496v0zM810.496 234.496h-42.496c-23.47 0-42.496-19.026-42.496-42.496s19.026-42.496 42.496-42.496h42.496c23.47 0 42.496 19.026 42.496 42.496s-19.026 42.496-42.496 42.496v0z" />
<glyph unicode="&#xe35;" glyph-name="fax" d="M981.333 767.829h-128v64.171c0 70.692-57.308 128-128 128v0h-85.333c-70.692 0-128-57.308-128-128v0-64.171h-469.333c-23.564 0-42.667-19.103-42.667-42.667v0-597.333c0-23.564 19.103-42.667 42.667-42.667v0h469.333v-21.163c0-70.692 57.308-128 128-128v0h85.333c70.692 0 128 57.308 128 128v0 21.163h128c23.564 0 42.667 19.103 42.667 42.667v0 597.333c0 23.564-19.103 42.667-42.667 42.667v0zM85.333 170.496v512h426.667v-512zM768 64c0-23.564-19.103-42.667-42.667-42.667v0h-85.333c-23.564 0-42.667 19.103-42.667 42.667v0 768c0 23.564 19.103 42.667 42.667 42.667v0h85.333c23.564 0 42.667-19.103 42.667-42.667v0zM938.667 170.496h-85.333v512h85.333zM192.171 533.333h213.333c23.564 0 42.667 19.103 42.667 42.667s-19.103 42.667-42.667 42.667v0h-213.333c-23.564 0-42.667-19.103-42.667-42.667s19.103-42.667 42.667-42.667v0zM234.837 469.163h-42.667c-23.564 0-42.667-19.103-42.667-42.667s19.103-42.667 42.667-42.667v0h42.667c23.564 0 42.667 19.103 42.667 42.667s-19.103 42.667-42.667 42.667v0zM405.504 469.163h-42.667c-23.564 0-42.667-19.103-42.667-42.667s19.103-42.667 42.667-42.667v0h42.667c23.564 0 42.667 19.103 42.667 42.667s-19.103 42.667-42.667 42.667v0zM405.504 320h-42.667c-23.564 0-42.667-19.103-42.667-42.667s19.103-42.667 42.667-42.667v0h42.667c23.564 0 42.667 19.103 42.667 42.667s-19.103 42.667-42.667 42.667v0zM234.837 320h-42.667c-23.564 0-42.667-19.103-42.667-42.667s19.103-42.667 42.667-42.667v0h42.667c23.564 0 42.667 19.103 42.667 42.667s-19.103 42.667-42.667 42.667v0z" />
<glyph unicode="&#xe36;" d="M0 960h1024v-1024h-1024v1024z" />
<glyph unicode="&#xe37;" d="M391.936 406.784h53.76v-198.656c0-0.010 0-0.021 0-0.033 0-8.547 6.648-15.541 15.056-16.093l0.048-0.003h85.248c8.907 0 16.128 7.221 16.128 16.128v0 198.656h51.2c8.057 0.047 14.71 5.993 15.861 13.736l0.011 0.088 10.752 85.504c0.085 0.615 0.133 1.326 0.133 2.049 0 8.766-7.106 15.872-15.872 15.872-0.047 0-0.093 0-0.14-0.001h-60.921c2.304 52.736-9.216 68.352 25.6 68.352 23.040 2.816 59.648-8.96 59.648 15.872v76.8c0 0.039 0.001 0.086 0.001 0.133 0 8.044-5.984 14.69-13.743 15.73l-0.081 0.009c-17.478 1.997-37.733 3.136-58.255 3.136-2.92 0-5.835-0.023-8.744-0.069l0.439 0.005c-149.504 0-118.528-165.888-122.368-179.2h-53.76c-8.796-0.144-15.872-7.309-15.872-16.126 0-0.001 0-0.001 0-0.002v0-86.272c0-8.766 7.106-15.872 15.872-15.872v0zM408.064 492.032h52.736c8.766 0 15.872 7.106 15.872 15.872v0 68.096c0 61.44 33.024 96.768 90.368 96.768 18.944 0 36.096 0 47.872-1.792v-45.824c-8.448-4.352-84.736 18.688-84.736-57.6v-58.88c0-8.766 7.106-15.872 15.872-15.872v0h60.672l-6.656-53.504h-52.992c-8.766 0-15.872-7.106-15.872-15.872v0-198.656h-53.504v197.632c0 0.001 0 0.001 0 0.002 0 8.817-7.076 15.982-15.858 16.126h-53.774z" />
<glyph unicode="&#xe38;" glyph-name="email_1" d="M1024 797.867v0c0.249 1.794 0.392 3.867 0.392 5.973s-0.142 4.179-0.418 6.21l0.026-0.236s0 0 0 0v0c-1.417 3.913-3.144 7.293-5.229 10.414l0.109-0.174v1.707c-2.27 2.778-4.732 5.239-7.417 7.436l-0.092 0.073c-2.947 1.976-6.327 3.703-9.908 5.014l-0.332 0.106h-2.389c-4.873 3.466-10.842 5.701-17.303 6.138l-0.105 0.006h-938.667c-0.088 0.001-0.193 0.001-0.298 0.001-4.18 0-8.184-0.751-11.885-2.126l0.236 0.077-2.389-0.683c-3.913-1.417-7.293-3.144-10.414-5.229l0.174 0.109c-3.332-2.533-6.245-5.337-8.803-8.444l-0.071-0.089v-1.707c-1.976-2.947-3.703-6.327-5.014-9.908l-0.106-0.332s0 0 0 0 0 0 0 0c-0.249-1.794-0.392-3.867-0.392-5.973s0.142-4.179 0.418-6.21l-0.026 0.236h-4.096v-682.667c-0.043-0.714-0.067-1.549-0.067-2.389 0-23.564 19.103-42.667 42.667-42.667 0.024 0 0.047 0 0.071 0h127.996c23.564 0 42.667 19.103 42.667 42.667s-19.103 42.667-42.667 42.667v0h-85.333v556.032l401.408-291.84c6.993-5.124 15.767-8.199 25.259-8.199s18.266 3.075 25.38 8.283l-0.121-0.084 401.408 291.84v-556.032h-597.333c-23.564 0-42.667-19.103-42.667-42.667s19.103-42.667 42.667-42.667v0h640c23.564 0 42.667 19.103 42.667 42.667v0 682.667zM512 509.44l-338.261 245.76h676.523zM810.667 243.2c23.564 0 42.667 19.103 42.667 42.667s-19.103 42.667-42.667 42.667v0h-170.667c-23.564 0-42.667-19.103-42.667-42.667s19.103-42.667 42.667-42.667v0z" />
<glyph unicode="&#xe39;" glyph-name="check" d="M255.659 433.323l188.075-190.123 323.243 323.243-84.309 86.357-224.256-224.256c-3.637-3.6-8.641-5.824-14.165-5.824s-10.529 2.224-14.167 5.826l-88.745 87.721zM512-64c-13.312 0-26.283 0-39.253 0-265.422 20.96-472.864 241.506-472.864 510.502 0 282.77 229.23 512 512 512s512-229.23 512-512c0-111.914-35.907-215.442-96.829-299.692l1.032 1.499c-3.618-5.214-9.573-8.586-16.317-8.586-4.389 0-8.445 1.428-11.727 3.846l0.055-0.038c-5.010 3.707-8.223 9.596-8.223 16.235 0 4.413 1.419 8.494 3.826 11.812l-0.040-0.058c55.286 76.327 88.434 171.835 88.434 275.086 0 260.714-211.35 472.064-472.064 472.064s-472.064-211.35-472.064-472.064c0-260.714 211.35-472.064 472.064-472.064 103.251 0 198.759 33.148 276.464 89.383l-1.378-0.949c3.26 2.367 7.341 3.786 11.754 3.786 6.639 0 12.528-3.213 16.197-8.169l0.039-0.055c2.379-3.228 3.807-7.283 3.807-11.673 0-6.743-3.371-12.699-8.521-16.274l-0.065-0.043c-82.401-59.128-185.288-94.553-296.449-94.553-0.66 0-1.319 0.001-1.979 0.004h0.102zM859.819 80.043c-5.466 0.002-10.414 2.219-13.995 5.803v0c-3.588 3.635-5.804 8.631-5.804 14.145 0 0.067 0 0.134 0.001 0.202v-0.010c0 10.934 8.864 19.797 19.797 19.797v0c0.057 0.001 0.124 0.001 0.191 0.001 5.514 0 10.51-2.216 14.147-5.806l-0.002 0.002c3.583-3.581 5.8-8.529 5.803-13.994v0c0.002-0.102 0.003-0.223 0.003-0.344 0-10.934-8.864-19.797-19.797-19.797-0.121 0-0.242 0.001-0.362 0.003h0.018z" />
<glyph unicode="&#xe40;" glyph-name="right-arrow" d="M689.55 797.181c-13.95 14.438-37.168 14.438-51.606 0-13.95-13.95-13.95-37.168 0-51.086l261.674-261.674h-863.49c-20.129-0.033-36.128-16.032-36.128-36.16s15.999-36.648 36.128-36.648h863.49l-261.674-261.187c-13.95-14.438-13.95-37.689 0-51.606 14.438-14.438 37.689-14.438 51.606 0l323.622 323.622c14.438 13.95 14.438 37.168 0 51.086l-323.622 323.654z" />
<glyph unicode="&#xe41;" glyph-name="slider_arr_right" horiz-adv-x="548" d="M61.724-53.476c-6.402-6.5-15.298-10.528-25.136-10.528-0.163 0-0.326 0.001-0.489 0.003h0.025c-0.138-0.002-0.301-0.003-0.464-0.003-9.837 0-18.734 4.027-25.131 10.523l-0.004 0.004c-6.436 6.604-10.406 15.638-10.406 25.6s3.97 18.996 10.413 25.608l450.268 450.268-450.276 450.276c-6.436 6.604-10.406 15.638-10.406 25.6s3.97 18.996 10.413 25.608l-0.008-0.008c6.604 6.436 15.638 10.406 25.6 10.406s18.996-3.97 25.608-10.413l475.868-475.868c6.571-6.543 10.637-15.597 10.637-25.6s-4.066-19.057-10.636-25.599l-0.001-0.001z" />
<glyph unicode="&#xe42;" glyph-name="slider_arr_left" horiz-adv-x="548" d="M486.4 949.476c6.574 6.503 15.618 10.52 25.6 10.52s19.026-4.017 25.603-10.523l-0.003 0.003c6.571-6.543 10.637-15.597 10.637-25.6s-4.066-19.057-10.636-25.599l-450.277-450.277 450.276-450.276c6.571-6.543 10.637-15.597 10.637-25.6s-4.066-19.057-10.636-25.599l-0.001-0.001c-6.604-6.436-15.638-10.406-25.6-10.406s-18.996 3.97-25.608 10.413l-475.868 475.868c-6.436 6.604-10.406 15.638-10.406 25.6s3.97 18.996 10.413 25.608l-0.008-0.008z" />
<glyph unicode="&#xe43;" glyph-name="clock" d="M916.48 690.688c-14.456-7.135-24.224-21.771-24.224-38.689 0-6.784 1.571-13.202 4.369-18.908l-0.112 0.253c26.491-53.471 41.99-116.434 41.99-183.017 0-0.818-0.002-1.635-0.007-2.452l0.001 0.126c0-235.547-190.949-426.496-426.496-426.496s-426.496 190.949-426.496 426.496c0 235.547 190.949 426.496 426.496 426.496v0c0.533 0.002 1.164 0.004 1.795 0.004 99.753 0 191.44-34.537 263.756-92.305l-0.847 0.653c7.757-8.147 18.685-13.214 30.797-13.214 23.47 0 42.496 19.026 42.496 42.496 0 15.987-8.829 29.913-21.876 37.167l-0.217 0.111c-86.102 67.999-196.205 109.073-315.902 109.073-282.77 0-512-229.23-512-512s229.23-512 512-512c282.77 0 512 229.23 512 512 0 0.534-0.001 1.067-0.002 1.601v-0.082c0.001 0.319 0.001 0.697 0.001 1.074 0 80.673-18.904 156.931-52.523 224.586l1.322-2.94c-7.038 14.317-21.518 23.997-38.258 23.997-6.559 0-12.771-1.486-18.318-4.14l0.256 0.11zM512 789.504c-23.531-0.289-42.496-19.432-42.496-43.005 0-0.001 0-0.002 0-0.003v0-298.496c0-23.47 19.026-42.496 42.496-42.496v0h213.504c23.47 0 42.496 19.026 42.496 42.496s-19.026 42.496-42.496 42.496h-171.008v256c0 0.001 0 0.002 0 0.003 0 23.573-18.965 42.716-42.469 43.005h-0.027z" />
<glyph unicode="&#xe44;" glyph-name="calendar" d="M981.504 832h-128v85.504c-0.289 23.531-19.432 42.496-43.005 42.496-0.001 0-0.002 0-0.003 0v0c-23.47 0-42.496-19.026-42.496-42.496v0-85.504h-512v85.504c0 23.47-19.026 42.496-42.496 42.496v0c-0.001 0-0.002 0-0.003 0-23.573 0-42.716-18.965-43.005-42.469v-85.531h-128c-23.47 0-42.496-19.026-42.496-42.496v0-811.008c0-23.47 19.026-42.496 42.496-42.496v0h939.008c23.47 0 42.496 19.026 42.496 42.496v0 811.008c0 23.47-19.026 42.496-42.496 42.496v0zM85.504 21.504v468.992h596.992c23.637 0.285 42.723 19.371 43.008 42.981v0.027c-0.289 23.531-19.432 42.496-43.005 42.496-0.001 0-0.002 0-0.003 0h-596.992v170.496h84.992v-42.496c0.289-23.531 19.432-42.496 43.005-42.496 0.001 0 0.002 0 0.003 0v0c23.47 0 42.496 19.026 42.496 42.496v0 42.496h512v-42.496c0-23.47 19.026-42.496 42.496-42.496v0c0.001 0 0.002 0 0.003 0 23.573 0 42.716 18.965 43.005 42.469v42.523h84.992v-170.496h-84.992c-0.001 0-0.002 0-0.003 0-23.573 0-42.716-18.965-43.005-42.469v-0.027c0.285-23.637 19.371-42.723 42.981-43.008h85.019v-468.992zM256 405.504h-42.496c-23.637-0.285-42.723-19.371-43.008-42.981v-0.027c0.289-23.531 19.432-42.496 43.005-42.496 0.001 0 0.002 0 0.003 0h42.496c23.47 0 42.496 19.026 42.496 42.496v0c0 0.001 0 0.002 0 0.003 0 23.573-18.965 42.716-42.469 43.005h-0.027zM448 405.504h-42.496c-23.637-0.285-42.723-19.371-43.008-42.981v-0.027c0.289-23.531 19.432-42.496 43.005-42.496 0.001 0 0.002 0 0.003 0h42.496c23.47 0 42.496 19.026 42.496 42.496v0c0 0.001 0 0.002 0 0.003 0 23.573-18.965 42.716-42.469 43.005h-0.027zM618.496 405.504h-42.496c-23.531-0.289-42.496-19.432-42.496-43.005 0-0.001 0-0.002 0-0.003v0c0-23.47 19.026-42.496 42.496-42.496v0h42.496c0.001 0 0.002 0 0.003 0 23.573 0 42.716 18.965 43.005 42.469v0.027c-0.285 23.637-19.371 42.723-42.981 43.008h-0.027zM810.496 405.504h-42.496c-23.531-0.289-42.496-19.432-42.496-43.005 0-0.001 0-0.002 0-0.003v0c0-23.47 19.026-42.496 42.496-42.496v0h42.496c0.001 0 0.002 0 0.003 0 23.573 0 42.716 18.965 43.005 42.469v0.027c-0.285 23.637-19.371 42.723-42.981 43.008h-0.027zM256 234.496h-42.496c-23.47 0-42.496-19.026-42.496-42.496s19.026-42.496 42.496-42.496h42.496c23.47 0 42.496 19.026 42.496 42.496s-19.026 42.496-42.496 42.496v0zM448 234.496h-42.496c-23.47 0-42.496-19.026-42.496-42.496s19.026-42.496 42.496-42.496h42.496c23.47 0 42.496 19.026 42.496 42.496s-19.026 42.496-42.496 42.496v0zM618.496 234.496h-42.496c-23.47 0-42.496-19.026-42.496-42.496s19.026-42.496 42.496-42.496h42.496c23.47 0 42.496 19.026 42.496 42.496s-19.026 42.496-42.496 42.496v0zM810.496 234.496h-42.496c-23.47 0-42.496-19.026-42.496-42.496s19.026-42.496 42.496-42.496h42.496c23.47 0 42.496 19.026 42.496 42.496s-19.026 42.496-42.496 42.496v0z" />
<glyph unicode="&#xe45;" glyph-name="menu-square-button" d="M896 960h-768c-70.239 0-128-63.008-128-133.281v-763.487c0-70.271 56.927-127.232 127.168-127.232h762.975c70.239 0 133.856 57.729 133.856 128v768c0 70.273-57.761 128-128 128zM960 64c0-35.136-34.752-64.383-69.856-64.383h-762.975c-35.104 0-63.583 28.48-63.583 63.617v763.486c0 35.137 29.313 69.281 64.417 69.281h768c35.104 0 64-28.864 64-64v-768zM768 320h-512c-17.664 0-32-14.336-32-32s14.336-32 32-32h512c17.664 0 32 14.336 32 32s-14.336 32-32 32zM768 512h-512c-17.664 0-32-14.336-32-32s14.336-32 32-32h512c17.664 0 32 14.336 32 32s-14.336 32-32 32zM768 704h-512c-17.664 0-32-14.336-32-32s14.336-32 32-32h512c17.664 0 32 14.336 32 32s-14.336 32-32 32z" />
<glyph unicode="&#xe46;" glyph-name="cross" d="M1024 899.758l-59.364 59.233-452.636-451.773-452.638 451.773-59.362-59.233 452.638-451.776-452.638-451.741 59.362-59.231 452.638 451.741 452.636-451.741 59.364 59.231-452.67 451.741z" />
<glyph unicode="&#xe900;" glyph-name="arrow-down-angle" d="M999.572 620.644l-487.589-487.522-487.556 487.489c-32.559 32.593-32.559 85.347 0 117.84 32.559 32.559 85.281 32.526 117.84 0l369.749-369.682 369.816 369.716c32.559 32.526 85.281 32.526 117.806 0 32.493-32.559 32.493-85.281-0.067-117.84z" />
<glyph unicode="&#xe901;" glyph-name="web" d="M981.333 960h-938.667c-23.564 0-42.667-19.103-42.667-42.667v0-938.667c0-23.564 19.103-42.667 42.667-42.667v0h938.667c23.564 0 42.667 19.103 42.667 42.667v0 938.667c0 23.564-19.103 42.667-42.667 42.667v0zM938.667 704h-85.333v170.667h85.333zM640 874.667h128v-380.587l-37.205 30.037c-7.318 5.725-16.653 9.181-26.795 9.181s-19.476-3.456-26.891-9.253l0.096 0.072-37.205-30.037zM554.667 874.667v-170.667h-469.333v170.667zM85.333 21.333v597.333h469.333v-213.333c0-23.564 19.103-42.667 42.667-42.667 9.653 0 18.558 3.206 25.707 8.611l-0.107-0.078 80.213 64.171 79.872-64.171c7.204-5.744 16.439-9.216 26.486-9.216 0.048 0 0.097 0 0.145 0h-0.007c6.693 0.018 13.029 1.526 18.7 4.21l-0.268-0.114c14.425 7.115 24.185 21.697 24.235 38.564v214.023h85.333v-597.333zM192.171 746.667h42.667c23.564 0 42.667 19.103 42.667 42.667s-19.103 42.667-42.667 42.667v0h-42.667c-23.564 0-42.667-19.103-42.667-42.667s19.103-42.667 42.667-42.667v0zM384 746.667h42.667c23.564 0 42.667 19.103 42.667 42.667s-19.103 42.667-42.667 42.667v0h-42.667c-23.564 0-42.667-19.103-42.667-42.667s19.103-42.667 42.667-42.667v0zM405.504 320h-213.333c-23.564 0-42.667-19.103-42.667-42.667s19.103-42.667 42.667-42.667v0h213.333c23.564 0 42.667 19.103 42.667 42.667s-19.103 42.667-42.667 42.667v0zM277.504 192h-85.333c-23.564 0-42.667-19.103-42.667-42.667s19.103-42.667 42.667-42.667v0h85.333c23.564 0 42.667 19.103 42.667 42.667s-19.103 42.667-42.667 42.667v0z" />
<glyph unicode="&#xe902;" d="M0 960h1024v-1024h-1024v1024z" />
<glyph unicode="&#xe903;" d="M391.936 406.784h53.76v-198.656c-0.001-0.076-0.002-0.166-0.002-0.256 0-8.766 7.106-15.872 15.872-15.872 0.001 0 0.001 0 0.002 0h85.504c0.001 0 0.001 0 0.002 0 8.766 0 15.872 7.106 15.872 15.872 0 0.090-0.001 0.18-0.002 0.269v-0.013 198.656h51.2c0.030 0 0.066 0 0.101 0 8.135 0 14.84 6.119 15.763 14.006l0.007 0.074 10.752 85.248c0.064 0.538 0.1 1.161 0.1 1.793 0 8.852-7.132 16.039-15.964 16.127h-61.704c2.56 52.736-9.216 68.352 25.6 68.352 23.296 2.816 59.904-8.96 59.904 15.872v76.8c-0.121 8.311-6.61 15.068-14.8 15.613l-0.048 0.003c-18.788 2.289-40.541 3.595-62.598 3.595-1.213 0-2.425-0.004-3.636-0.012l0.187 0.001c-149.504 0-118.784-165.632-122.368-179.2h-53.76c-0.001 0-0.001 0-0.002 0-8.817 0-15.982-7.076-16.126-15.858v-85.518c-0.012-0.23-0.018-0.499-0.018-0.77 0-8.907 7.221-16.128 16.128-16.128 0.096 0 0.193 0.001 0.289 0.003h-0.014zM407.808 492.032h53.76c8.907 0 16.128 7.221 16.128 16.128v0 67.072c0 61.44 32.768 96.768 90.368 96.768 18.688 0 35.84 0 47.872-1.792v-46.336c-8.704-4.352-84.992 18.944-84.992-57.6v-58.624c0-8.907 7.221-16.128 16.128-16.128v0h59.392l-6.656-53.248h-52.736c-8.907 0-16.128-7.221-16.128-16.128v0-198.656h-53.248v198.656c0 8.907-7.221 16.128-16.128 16.128v0h-53.76z" />
<glyph unicode="&#xe904;" d="M0 960h1024v-1024h-1024v1024z" />
<glyph unicode="&#xe905;" d="M632.064 552.448c-0.901 0.023-1.962 0.036-3.026 0.036-28.813 0-55.376-9.636-76.642-25.861l0.308 0.225c0 31.232-33.792 14.080-111.616 18.688-8.796-0.144-15.872-7.309-15.872-16.126 0-0.001 0-0.001 0-0.002v0c6.4-302.080-14.336-336.384 15.872-336.384h99.584c28.672 0 10.496 40.704 15.872 174.592 0 55.296 16.128 66.304 43.52 66.304s35.84-21.248 35.84-68.864c5.632-131.584-12.8-172.032 16.128-172.032h99.328c8.766 0 15.872 7.106 15.872 15.872v0c-7.424 166.656 39.424 343.552-135.168 343.552zM734.464 224h-67.328c0 153.6 16.128 240.896-67.84 240.896-95.744 0-75.52-105.472-75.52-240.896h-66.56v289.536h63.488v-27.904c0.563-8.874 7.898-15.857 16.864-15.857 6.215 0 11.646 3.356 14.581 8.354l0.043 0.079c15.72 26.131 43.928 43.342 76.155 43.342 1.307 0 2.608-0.028 3.901-0.084l-0.184 0.006c75.264 0 102.4-36.864 102.4-136.448z" />
<glyph unicode="&#xe906;" d="M394.752 528.384c0 27.648-40.192 11.264-115.456 16.128-30.208 0-9.472-33.792-16.128-336.64 0.144-8.796 7.309-15.872 16.126-15.872 0.001 0 0.001 0 0.002 0h99.584c30.208 0 9.472 33.792 15.872 336.384zM362.752 224h-67.584v289.536h67.584z" />
<glyph unicode="&#xe907;" d="M329.216 704c-97.536 0-97.024-147.968 0-147.968s97.536 147.968 0 147.968zM329.216 588.032c-23.187 0-41.984 18.797-41.984 41.984s18.797 41.984 41.984 41.984v0c23.187 0 41.984-18.797 41.984-41.984s-18.797-41.984-41.984-41.984v0z" />
<glyph unicode="&#xe908;" d="M0 960h1024v-1024h-1024v1024z" />
<glyph unicode="&#xe909;" d="M263.424 284.416c45.882-29.238 101.804-46.6 161.782-46.6 85.006 0 161.866 34.875 217.053 91.098l0.045 0.046c50.424 53.004 81.444 124.876 81.444 203.993 0 1.634-0.013 3.265-0.040 4.892l0.003-0.245c24.532 20.157 40.99 49.36 44.248 82.44l0.040 0.504c-0.142 8.939-7.422 16.131-16.382 16.131-2.914 0-5.65-0.761-8.020-2.094l0.082 0.043c-10.487-7.169-23.444-11.448-37.401-11.448-6.090 0-11.989 0.815-17.596 2.341l0.468-0.109c-20.798 20.352-49.295 32.911-80.724 32.911-20.549 0-39.843-5.368-56.558-14.778l0.579 0.3c-36.084-18.846-60.291-55.998-60.291-98.803 0-1.895 0.047-3.78 0.141-5.652l-0.010 0.263c-70.32 8.742-131.16 43.664-173.472 94.541l-0.352 0.435c-2.961 3.244-7.207 5.271-11.927 5.271-5.738 0-10.776-2.996-13.634-7.509l-0.039-0.066c-10.148-16.466-16.16-36.418-16.16-57.775 0-19.553 5.039-37.929 13.89-53.9l-0.29 0.571c-8.043-1.396-14.082-8.323-14.082-16.66 0-0.083 0.001-0.166 0.002-0.249v0.013c0.116-33.953 15.102-64.384 38.782-85.136l0.13-0.112c-3.067-2.941-4.974-7.072-4.974-11.649 0-1.879 0.321-3.683 0.912-5.36l-0.035 0.113c10.923-32 34.583-57.164 64.776-69.86l0.76-0.284c-23.642-11.609-51.457-18.398-80.857-18.398-7.591 0-15.077 0.453-22.431 1.332l0.888-0.087c-1.601 0.583-3.449 0.921-5.376 0.921-8.921 0-16.153-7.232-16.153-16.153 0-6.994 4.445-12.95 10.664-15.196l0.113-0.036zM429.056 325.632c3.859 2.977 6.321 7.603 6.321 12.803 0 8.789-7.031 15.937-15.775 16.124h-0.018c-27.162 0.701-51.068 14.041-66.142 34.332l-0.162 0.228c8.126 0.468 15.736 1.747 23.040 3.765l-0.768-0.181c7.012 1.854 12.097 8.141 12.097 15.616s-5.085 13.762-11.984 15.591l-0.113 0.025c-29.99 6.119-53.758 27.76-62.813 55.989l-0.163 0.587c7.635-1.959 16.437-3.163 25.494-3.326l0.106-0.002c0.152-0.005 0.33-0.008 0.509-0.008 8.907 0 16.128 7.221 16.128 16.128 0 5.674-2.93 10.663-7.359 13.538l-0.063 0.038c-22.311 14.589-36.848 39.453-36.848 67.713 0 7.141 0.928 14.064 2.67 20.657l-0.126-0.562c51.183-51.752 120.936-85.046 198.434-89.058l0.734-0.030c0.216-0.010 0.469-0.016 0.724-0.016 8.907 0 16.128 7.221 16.128 16.128 0 1.369-0.171 2.698-0.492 3.968l0.024-0.111c-1.499 5.758-2.36 12.368-2.36 19.179 0 30.733 17.526 57.373 43.129 70.469l0.447 0.208c11.924 7.028 26.271 11.179 41.587 11.179 24 0 45.62-10.194 60.765-26.488l0.047-0.051c10.905-5.95 23.887-9.449 37.685-9.449 7.449 0 14.66 1.020 21.5 2.927l-0.562-0.134c-7.307-13.938-17.219-25.568-29.184-34.63l-0.256-0.186c-4.214-2.896-6.941-7.69-6.941-13.121 0-0.337 0.011-0.672 0.031-1.005l-0.002 0.045c0.162-3.448 0.254-7.489 0.254-11.552 0-145.061-117.595-262.656-262.656-262.656-1.44 0-2.877 0.012-4.311 0.035l0.217-0.003c-0.029 0-0.065 0-0.1 0-31.099 0-60.995 5.154-88.88 14.654l1.939-0.574c33.754 7.51 63.357 21.854 88.545 41.579l-0.481-0.363z" />
<glyph unicode="&#xe90a;" glyph-name="hotline1" d="M853.333 576v170.667c0 117.821-95.513 213.333-213.333 213.333v0h-256c-117.821 0-213.333-95.513-213.333-213.333v0-170.667c-94.257 0-170.667-76.41-170.667-170.667v0-42.667c0-94.257 76.41-170.667 170.667-170.667v0h128c23.564 0 42.667 19.103 42.667 42.667v0 298.667c0 23.564-19.103 42.667-42.667 42.667v0h-42.667v170.667c0 70.692 57.308 128 128 128v0h256c70.692 0 128-57.308 128-128v0-170.667h-42.667c-23.564 0-42.667-19.103-42.667-42.667s19.103-42.667 42.667-42.667v0h128c47.128 0 85.333-38.205 85.333-85.333v0-42.667c0-47.128-38.205-85.333-85.333-85.333v0h-85.333v85.333c0 23.564-19.103 42.667-42.667 42.667s-42.667-19.103-42.667-42.667v0-128c0-23.564 19.103-42.667 42.667-42.667v0h42.667v-170.667h-170.667v42.667c0 23.564-19.103 42.667-42.667 42.667s-42.667-19.103-42.667-42.667v0-85.333c0-23.564 19.103-42.667 42.667-42.667v0h256c23.564 0 42.667 19.103 42.667 42.667v0 213.333c94.257 0 170.667 76.41 170.667 170.667v0 42.667c0 94.257-76.41 170.667-170.667 170.667v0zM256 277.333h-85.333c-47.128 0-85.333 38.205-85.333 85.333v0 42.667c0 47.128 38.205 85.333 85.333 85.333v0h85.333z" />
<glyph unicode="&#xe90b;" glyph-name="fax1" d="M981.333 767.829h-128v64.171c0 70.692-57.308 128-128 128v0h-85.333c-70.692 0-128-57.308-128-128v0-64.171h-469.333c-23.564 0-42.667-19.103-42.667-42.667v0-597.333c0-23.564 19.103-42.667 42.667-42.667v0h469.333v-21.163c0-70.692 57.308-128 128-128v0h85.333c70.692 0 128 57.308 128 128v0 21.163h128c23.564 0 42.667 19.103 42.667 42.667v0 597.333c0 23.564-19.103 42.667-42.667 42.667v0zM85.333 170.496v512h426.667v-512zM768 64c0-23.564-19.103-42.667-42.667-42.667v0h-85.333c-23.564 0-42.667 19.103-42.667 42.667v0 768c0 23.564 19.103 42.667 42.667 42.667v0h85.333c23.564 0 42.667-19.103 42.667-42.667v0zM938.667 170.496h-85.333v512h85.333zM192.171 533.333h213.333c23.564 0 42.667 19.103 42.667 42.667s-19.103 42.667-42.667 42.667v0h-213.333c-23.564 0-42.667-19.103-42.667-42.667s19.103-42.667 42.667-42.667v0zM234.837 469.163h-42.667c-23.564 0-42.667-19.103-42.667-42.667s19.103-42.667 42.667-42.667v0h42.667c23.564 0 42.667 19.103 42.667 42.667s-19.103 42.667-42.667 42.667v0zM405.504 469.163h-42.667c-23.564 0-42.667-19.103-42.667-42.667s19.103-42.667 42.667-42.667v0h42.667c23.564 0 42.667 19.103 42.667 42.667s-19.103 42.667-42.667 42.667v0zM405.504 320h-42.667c-23.564 0-42.667-19.103-42.667-42.667s19.103-42.667 42.667-42.667v0h42.667c23.564 0 42.667 19.103 42.667 42.667s-19.103 42.667-42.667 42.667v0zM234.837 320h-42.667c-23.564 0-42.667-19.103-42.667-42.667s19.103-42.667 42.667-42.667v0h42.667c23.564 0 42.667 19.103 42.667 42.667s-19.103 42.667-42.667 42.667v0z" />
<glyph unicode="&#xe90c;" glyph-name="chance1" horiz-adv-x="1111" d="M1104.545 298.28c-3.846 3.764-9.116 6.086-14.929 6.086-11.792 0-21.351-9.559-21.351-21.351s9.559-21.351 21.351-21.351c11.788 0 21.345 9.553 21.351 21.34v0.001c0 0.025 0 0.054 0 0.084 0 5.957-2.459 11.339-6.418 15.187l-0.005 0.005zM1089.269 215.651c-0.052 0-0.113 0.001-0.174 0.001-11.888 0-21.525-9.637-21.525-21.525 0-0.061 0-0.123 0.001-0.184v0.009-149.633c-0.098-35.912-29.184-64.997-65.086-65.096h-893.991c-34.378 0.104-62.495 26.77-64.91 60.547l-0.012 0.209h286.248c11.984 0 21.699 9.715 21.699 21.699s-9.715 21.699-21.699 21.699v0h-286.421v352.212c19.349-15.46 44.167-24.812 71.169-24.823h73.083v-35.586c0.099-49.046 39.831-88.779 88.868-88.877h6.258c0 0 0 0 0 0 49.12 0 88.952 39.771 89.051 88.868v35.595h367.314v-35.586c0.099-49.107 39.93-88.877 89.051-88.877 0 0 0 0 0 0h6.249c49.046 0.099 88.779 39.831 88.877 88.868v35.595h73.081c27.005 0.011 51.823 9.363 71.401 25l-0.23-0.177v-68.047c0-11.984 9.715-21.699 21.699-21.699s21.699 9.715 21.699 21.699v0 288.678c0 59.919-48.574 108.493-108.493 108.493v0h-199.28v82.455c-0.099 62.276-50.557 112.734-112.823 112.833h-269.767c-62.276-0.099-112.734-50.557-112.833-112.823v-82.465h-199.28c-59.919 0-108.493-48.574-108.493-108.493v0-611.9c0.099-59.879 48.614-108.394 108.484-108.493h893.991c59.879 0.099 108.394 48.614 108.493 108.484v149.642c0 0.052 0.001 0.113 0.001 0.174 0 11.888-9.637 21.525-21.525 21.525-0.061 0-0.123 0-0.184-0.001h0.009zM328.43 375.18c-0.099-25.139-20.501-45.48-45.654-45.48 0 0 0 0 0 0h-6.249c-25.118 0-45.48 20.362-45.48 45.48v0 79.33h97.383zM879.921 375.18c0-25.118-20.362-45.48-45.48-45.48v0h-6.249c0 0 0 0 0 0-25.153 0-45.555 20.341-45.653 45.471v79.339h97.383zM351.17 847.167c0 38.348 31.087 69.435 69.435 69.435v0h269.757c38.348 0 69.435-31.087 69.435-69.435v0-82.455h-43.397v86.794c0 0.001 0 0.002 0 0.003 0 11.984-9.715 21.699-21.699 21.699-0.122 0-0.244-0.001-0.366-0.003h-277.724c-11.984 0-21.699-9.715-21.699-21.699v0-86.794h-43.397zM673.004 829.808v-65.096h-235.039v65.096zM43.397 656.22c0 35.951 29.144 65.096 65.096 65.096v0h893.982c35.951 0 65.096-29.144 65.096-65.096v0-130.886c-0.098-39.267-31.904-71.073-71.162-71.171h-73.091v15.449c0 0 0 0 0 0.001 0 15.566-12.569 28.196-28.112 28.294h-127.77c-15.627 0-28.295-12.668-28.295-28.295v0-15.449h-367.314v15.449c0 15.627-12.668 28.295-28.295 28.295v0h-127.761c-15.552-0.098-28.121-12.729-28.121-28.294 0 0 0 0 0-0.001v0-15.449h-73.081c-39.267 0.098-71.073 31.904-71.171 71.162v0.010zM416.613 83.377v0c-11.984 0-21.699-9.715-21.699-21.699s9.715-21.699 21.699-21.699v0 0c11.984 0 21.699 9.715 21.699 21.699s-9.715 21.699-21.699 21.699v0z" />
<glyph unicode="&#xe90d;" glyph-name="chance2" d="M896 773.92c11.046 0 20 8.954 20 20v0 106.080c0 33.137-26.863 60-60 60v0h-796c-33.137 0-60-26.863-60-60v0-904c0-33.137 26.863-60 60-60v0h796c33.137 0 60 26.863 60 60v0 56c0 11.046-8.954 20-20 20s-20-8.954-20-20v0-56c0-11.046-8.954-20-20-20v0h-796c-11.046 0-20 8.954-20 20v0 904c0 11.046 8.954 20 20 20v0h796c11.046 0 20-8.954 20-20v0-106.080c0-11.046 8.954-20 20-20v0zM800 864h-684c-11.046 0-20-8.954-20-20v0-418.080c0-11.046 8.954-20 20-20s20 8.954 20 20v0 398.080h644v-32c0-11.046 8.954-20 20-20s20 8.954 20 20v0 52c0 11.046-8.954 20-20 20v0zM130.080 366.080c-3.545 3.469-8.403 5.61-13.76 5.61-10.869 0-19.68-8.811-19.68-19.68s8.811-19.68 19.68-19.68c10.865 0 19.674 8.805 19.68 19.669v0.001c0 0.023 0 0.050 0 0.077 0 5.49-2.267 10.451-5.916 13.998l-0.005 0.004zM800 116c-11.046 0-20-8.954-20-20v0-24h-644v203.040c0 11.046-8.954 20-20 20s-20-8.954-20-20v0-223.040c0-11.046 8.954-20 20-20v0h684c11.046 0 20 8.954 20 20v0 44c0 11.046-8.954 20-20 20v0zM619.84 253.28c-3.621 3.63-8.628 5.876-14.16 5.876s-10.539-2.246-14.16-5.875v0l-39.52-39.52-24 24.64c-7.183 7.194-17.112 11.644-28.080 11.644s-20.897-4.45-28.080-11.644v0l-16-16c-3.624-3.624-5.865-8.63-5.865-14.16 0-11.060 8.966-20.025 20.025-20.025 5.53 0 10.536 2.241 14.16 5.865v0l16 16 24.48-24.64c7.243-7.127 17.188-11.527 28.16-11.527s20.917 4.4 28.165 11.532l-0.005-0.005 39.68 39.84c3.34 3.542 5.393 8.331 5.393 13.599 0 5.666-2.375 10.778-6.185 14.393l-0.009 0.008zM1014.72 540.48c5.902 8.926 9.416 19.88 9.416 31.656 0 22.593-12.936 42.165-31.805 51.712l-0.331 0.152c-5.857 3.114-9.778 9.178-9.778 16.158 0 0.282 0.006 0.563 0.019 0.841l-0.001-0.040c0.043 0.832 0.067 1.807 0.067 2.787 0 32.077-26.003 58.080-58.080 58.080-0.98 0-1.955-0.024-2.923-0.072l0.136 0.005c-0.273-0.015-0.592-0.023-0.913-0.023-6.99 0-13.046 4.003-16 9.841l-0.047 0.102c-9.954 18.81-29.4 31.408-51.788 31.408-11.661 0-22.524-3.418-31.642-9.306l0.229 0.139c-2.754-1.812-6.131-2.891-9.76-2.891s-7.006 1.079-9.828 2.933l0.068-0.042c-8.888 5.75-19.751 9.168-31.412 9.168-22.388 0-41.833-12.598-51.635-31.091l-0.153-0.317c-3.045-5.942-9.127-9.938-16.143-9.938-0.287 0-0.573 0.007-0.857 0.020l0.040-0.001c-0.832 0.043-1.807 0.067-2.787 0.067-32.077 0-58.080-26.003-58.080-58.080 0-0.98 0.024-1.955 0.072-2.923l-0.005 0.136c0.011-0.239 0.018-0.52 0.018-0.802 0-6.98-3.92-13.044-9.679-16.11l-0.098-0.048c-18.826-9.689-31.48-28.986-31.48-51.239 0-2.922 0.218-5.793 0.639-8.597l-0.039 0.316h-348.64c-11.046 0-20-8.954-20-20s8.954-20 20-20v0h359.2l-1.44-3.2c-5.837-8.89-9.311-19.787-9.311-31.494 0-5.301 0.712-10.435 2.046-15.312l-0.095 0.406c0-2.24 1.44-4.32 2.24-6.4h-352c-11.046 0-20-8.954-20-20s8.954-20 20-20v0h387.84c0.724-1.915 1.143-4.129 1.143-6.44 0-0.324-0.008-0.645-0.024-0.965l0.002 0.045c-0.043-0.832-0.067-1.807-0.067-2.787 0-32.077 26.003-58.080 58.080-58.080 0.98 0 1.955 0.024 2.923 0.072l-0.136-0.005c0.296 0.017 0.643 0.027 0.992 0.027 6.929 0 12.94-3.933 15.921-9.688l0.047-0.1c2.511-4.832 5.494-8.99 8.982-12.664l-0.022 0.024v-186.88c0.070-10.992 8.997-19.876 20-19.876 5.492 0 10.467 2.214 14.082 5.798l-0.001-0.001 49.92 49.6 49.92-49.6c3.597-3.628 8.571-5.885 14.073-5.92h0.007c0.052-0.001 0.112-0.001 0.174-0.001 2.719 0 5.299 0.59 7.622 1.648l-0.115-0.047c7.29 3.043 12.32 10.114 12.32 18.36 0 0.014 0 0.028 0 0.043v-0.002 186.4c3.466 3.65 6.449 7.808 8.816 12.338l0.144 0.302c3.114 5.857 9.178 9.778 16.158 9.778 0.282 0 0.563-0.006 0.841-0.019l-0.040 0.001c0.832-0.043 1.807-0.067 2.787-0.067 32.077 0 58.080 26.003 58.080 58.080 0 0.98-0.024 1.955-0.072 2.923l0.005-0.136c-0.013 0.258-0.020 0.56-0.020 0.864 0 7.008 3.918 13.101 9.682 16.208l0.098 0.048c18.871 9.806 31.539 29.205 31.539 51.563 0 11.7-3.469 22.59-9.435 31.697l0.136-0.221c-1.688 2.772-2.688 6.124-2.688 9.709 0 3.693 1.061 7.139 2.894 10.049l-0.046-0.078zM856 198.72l-29.92 29.76c-3.63 3.545-8.6 5.732-14.080 5.732s-10.45-2.187-14.084-5.735l0.004 0.004-29.92-29.76v120c0.874-0.047 1.897-0.074 2.927-0.074 11.632 0 22.463 3.429 31.537 9.331l-0.224-0.137c2.754 1.812 6.131 2.891 9.76 2.891s7.006-1.079 9.828-2.933l-0.068 0.042c8.928-5.82 19.855-9.281 31.59-9.281 0.144 0 0.288 0.001 0.432 0.002h2.698zM984 484.64c-1.363-4.975-4.665-9.008-9.022-11.313l-0.098-0.047c-19.164-9.888-32.041-29.546-32.041-52.211 0-0.77 0.015-1.536 0.044-2.299l-0.003 0.11c0.021-0.326 0.034-0.707 0.034-1.091 0-4.96-2.033-9.444-5.311-12.667l-0.003-0.002c-3.272-3.273-7.793-5.298-12.787-5.298-0.286 0-0.57 0.007-0.853 0.020l0.040-0.001c-0.739 0.034-1.607 0.053-2.478 0.053-22.588 0-42.164-12.894-51.769-31.724l-0.152-0.329c-3.089-5.939-9.196-9.925-16.235-9.925-3.656 0-7.062 1.076-9.916 2.928l0.071-0.043c-8.85 5.821-19.7 9.285-31.36 9.285s-22.51-3.464-31.578-9.42l0.218 0.134c-2.784-1.809-6.189-2.885-9.845-2.885-7.038 0-13.145 3.986-16.187 9.824l-0.048 0.101c-9.758 19.159-29.334 32.053-51.922 32.053-0.872 0-1.739-0.019-2.601-0.057l0.123 0.004c-0.243-0.012-0.527-0.018-0.813-0.018-4.994 0-9.515 2.025-12.787 5.298v0c-3.281 3.225-5.314 7.709-5.314 12.669 0 0.384 0.012 0.765 0.036 1.143l-0.003-0.052c0.024 0.628 0.038 1.365 0.038 2.106 0 15.67-6.105 29.914-16.065 40.483l0.028-0.030-0.96 0.96c-4.209 4.275-9.061 7.902-14.401 10.726l-0.319 0.154c-5.83 3.122-9.728 9.172-9.728 16.132 0 3.632 1.062 7.017 2.892 9.86l-0.043-0.072c5.725 8.904 9.126 19.775 9.126 31.44s-3.401 22.535-9.266 31.674l0.14-0.234c-1.811 2.722-2.89 6.066-2.89 9.663 0 1.686 0.237 3.318 0.68 4.862l-0.030-0.124c1.304 5.048 4.621 9.15 9.022 11.473l0.098 0.047c19.162 9.845 32.045 29.475 32.045 52.115 0 0.804-0.016 1.604-0.048 2.399l0.004-0.114c-0.021 0.326-0.034 0.707-0.034 1.091 0 4.96 2.033 9.444 5.311 12.667l0.003 0.002c3.367 3.271 7.968 5.288 13.040 5.288 0.197 0 0.393-0.003 0.589-0.009l-0.029 0.001c0.739-0.034 1.607-0.053 2.478-0.053 22.588 0 42.164 12.894 51.769 31.724l0.152 0.329c2.4 4.513 6.482 7.864 11.389 9.248l0.131 0.032c1.379 0.377 2.962 0.594 4.595 0.594 3.711 0 7.16-1.118 10.030-3.035l-0.066 0.041c8.876-5.729 19.721-9.134 31.36-9.134s22.484 3.405 31.591 9.273l-0.231-0.139c2.804 1.876 6.254 2.994 9.965 2.994 1.634 0 3.217-0.217 4.722-0.623l-0.127 0.029c5.038-1.416 9.12-4.767 11.471-9.18l0.049-0.1c9.758-19.159 29.334-32.053 51.922-32.053 0.872 0 1.739 0.019 2.601 0.057l-0.123-0.004c0.167 0.005 0.363 0.008 0.56 0.008 5.072 0 9.673-2.017 13.044-5.293l-0.004 0.004c3.281-3.225 5.314-7.709 5.314-12.669 0-0.384-0.012-0.765-0.036-1.143l0.003 0.052c-0.028-0.682-0.045-1.481-0.045-2.285 0-22.64 12.883-42.27 31.717-51.962l0.328-0.153c4.499-2.37 7.816-6.472 9.093-11.396l0.027-0.124c0.412-1.42 0.65-3.051 0.65-4.737 0-3.596-1.079-6.941-2.93-9.727l0.041 0.065c-5.725-8.904-9.126-19.775-9.126-31.44s3.401-22.535 9.266-31.674l-0.14 0.234c1.422-2.51 2.261-5.514 2.261-8.713 0-2.094-0.359-4.104-1.019-5.973l0.039 0.125zM907.040 584.96c-3.595 3.621-8.576 5.862-14.080 5.862s-10.485-2.241-14.079-5.861l-0.001-0.001-66.4-66.24-26.4 26.4c-3.624 3.624-8.63 5.865-14.16 5.865-11.060 0-20.025-8.966-20.025-20.025 0-5.53 2.241-10.536 5.865-14.16v0l40.48-40.64c3.68-3.564 8.703-5.76 14.239-5.76 0 0 0.001 0 0.001 0v0c0.030 0 0.066 0 0.102 0 5.453 0 10.393 2.2 13.979 5.761l79.999 79.999c3.962 3.639 6.436 8.844 6.436 14.627 0 5.55-2.279 10.569-5.953 14.169l-0.003 0.003zM244.16 718.080c-3.603 3.669-8.616 5.943-14.16 5.943s-10.557-2.274-14.157-5.94l-0.003-0.003c-3.582-3.613-5.796-8.588-5.796-14.080 0-11.046 8.954-20 20-20 0.013 0 0.025 0 0.038 0h-0.002c0.003 0 0.006 0 0.010 0 5.512 0 10.494 2.266 14.067 5.916l0.003 0.004c3.66 3.577 5.93 8.563 5.93 14.080s-2.27 10.503-5.926 14.076l-0.004 0.004zM402.080 724h-98.080c-11.046 0-20-8.954-20-20s8.954-20 20-20v0h97.44c11.046 0 20 8.954 20 20s-8.954 20-20 20v0zM605.6 372h-228.64c-11.046 0-20-8.954-20-20s8.954-20 20-20v0h228.64c11.046 0 20 8.954 20 20s-8.954 20-20 20v0z" />
<glyph unicode="&#xe90e;" glyph-name="check1" d="M256 432.981l187.733-189.781 323.243 323.243-84.309 86.357-224.256-224.256c-3.637-3.6-8.641-5.824-14.165-5.824s-10.529 2.224-14.167 5.826l-88.745 87.721zM512-64c-13.312 0-26.283 0-39.253 0-265.422 20.96-472.864 241.506-472.864 510.502 0 282.77 229.23 512 512 512s512-229.23 512-512c0-111.914-35.907-215.442-96.829-299.692l1.032 1.499c-3.618-5.214-9.573-8.586-16.317-8.586-4.389 0-8.445 1.428-11.727 3.846l0.055-0.038c-5.010 3.707-8.223 9.596-8.223 16.235 0 4.413 1.419 8.494 3.826 11.812l-0.040-0.058c55.286 76.327 88.434 171.835 88.434 275.086 0 260.714-211.35 472.064-472.064 472.064s-472.064-211.35-472.064-472.064c0-260.714 211.35-472.064 472.064-472.064 103.251 0 198.759 33.148 276.464 89.383l-1.378-0.949c3.26 2.367 7.341 3.786 11.754 3.786 6.639 0 12.528-3.213 16.197-8.169l0.039-0.055c2.379-3.228 3.807-7.283 3.807-11.673 0-6.743-3.371-12.699-8.521-16.274l-0.065-0.043c-82.401-59.128-185.288-94.553-296.449-94.553-0.66 0-1.319 0.001-1.979 0.004h0.102zM859.819 80.043c-5.466 0.002-10.414 2.219-13.995 5.803v0c-3.588 3.635-5.804 8.631-5.804 14.145 0 0.067 0 0.134 0.001 0.202v-0.010c0 10.934 8.864 19.797 19.797 19.797v0c0.057 0.001 0.124 0.001 0.191 0.001 5.514 0 10.51-2.216 14.147-5.806l-0.002 0.002c3.583-3.581 5.8-8.529 5.803-13.994v0c0.002-0.102 0.003-0.223 0.003-0.344 0-10.934-8.864-19.797-19.797-19.797-0.121 0-0.242 0.001-0.362 0.003h0.018z" />
<glyph unicode="&#xe90f;" glyph-name="404" horiz-adv-x="2896" d="M459.967 936.984l-459.992-582.43v-264.596h485.878v-130.883h299.017v130.883h122.144v257.421h-122.144v589.606h-324.884zM485.833 347.364h-182.566l182.566 228.657v-228.657zM993.184 448.030c0-274.679 132.231-511.965 462.858-511.965 329.179 0 461.41 237.286 461.41 511.965s-132.231 511.965-461.41 511.965c-330.627 0-462.858-237.286-462.858-511.965zM1586.825 448.030c0-159.631-41.647-225.781-130.783-225.781-90.584 0-132.231 66.15-132.231 225.781s41.647 225.781 132.231 225.781c89.136 0 130.783-66.15 130.783-225.781zM2449.222 936.984l-459.962-582.43v-264.596h485.828v-130.883h299.017v130.883h122.194v257.421h-122.194v589.606h-324.884zM2475.089 347.364h-182.517l182.517 228.657v-228.657z" />
<glyph unicode="&#xe910;" glyph-name="xing-1" d="M0 960v-1024h1024v1024h-1024zM177.231 307.89l122.999 202.534-92.23 162.501h156.112l92.277-162.501-123.008-202.534h-156.15zM759.266 93.538h-165.652l-158.533 277.927 246.077 430.996h165.611l-246.075-430.996 158.571-277.927z" />
<glyph unicode="&#xe911;" glyph-name="youtube" d="M0 960v-1024h1024v1024h-1024zM854.068 280.422c-8.689-37.697-39.526-65.531-76.647-69.677-87.87-9.797-176.837-9.862-265.457-9.797-88.584-0.065-177.55 0-265.448 9.797-37.13 4.143-67.964 31.98-76.609 69.677-12.369 53.669-12.369 112.302-12.369 167.58s0.146 113.885 12.504 167.553c8.644 37.733 39.49 65.531 76.573 69.675 87.906 9.824 176.911 9.862 265.495 9.824 88.575 0.036 177.55 0 265.448-9.824 37.13-4.143 67.964-31.942 76.647-69.675 12.367-53.669 12.256-112.275 12.256-167.553s-0.036-113.912-12.394-167.58zM420.526 337.95c75.319 39.058 149.972 77.79 225.366 116.876-75.612 39.452-150.256 78.366-225.366 117.562v-234.437z" />
</font>
</defs>
</svg>
