<svg xmlns="http://www.w3.org/2000/svg" width="580.001" height="205.062" viewBox="0 0 580.001 205.062">
  <defs>
    <style>
      .cls-1 {
        fill: #fff;
        fill-rule: evenodd;
      }
    </style>
  </defs>
  <path id="_404" data-name="404" class="cls-1" d="M1058.08,305.578L965.964,422.213V475.2h97.3V501.41h59.88V475.2h24.46v-51.55h-24.46V305.578h-65.06Zm5.18,118.075H1026.7l36.56-45.79v45.79Zm101.6-20.159c0,55.006,26.48,102.524,92.69,102.524,65.92,0,92.4-47.518,92.4-102.524s-26.48-102.524-92.4-102.524C1191.34,300.97,1164.86,348.488,1164.86,403.494Zm118.88,0c0,31.967-8.34,45.214-26.19,45.214-18.14,0-26.48-13.247-26.48-45.214s8.34-45.214,26.48-45.214C1275.4,358.28,1283.74,371.527,1283.74,403.494Zm172.7-97.916-92.11,116.635V475.2h97.29V501.41h59.88V475.2h24.47v-51.55H1521.5V305.578h-65.06Zm5.18,118.075h-36.55l36.55-45.79v45.79Z" transform="translate(-965.969 -300.969)"/>
</svg>
