<svg id="Слой_1" data-name="Слой 1" xmlns="http://www.w3.org/2000/svg" viewBox="0 0 30 30"><title>__fax</title><path d="M205.75,182.63H202v-1.88a3.75,3.75,0,0,0-3.75-3.75h-2.5a3.75,3.75,0,0,0-3.75,3.75v1.88H178.25a1.25,1.25,0,0,0-1.25,1.25v17.5a1.25,1.25,0,0,0,1.25,1.25H192v.62a3.75,3.75,0,0,0,3.75,3.75h2.5a3.75,3.75,0,0,0,3.75-3.75v-.62h3.75a1.25,1.25,0,0,0,1.25-1.25v-17.5A1.25,1.25,0,0,0,205.75,182.63Zm-26.25,17.5v-15H192v15Zm20,3.12a1.25,1.25,0,0,1-1.25,1.25h-2.5a1.25,1.25,0,0,1-1.25-1.25v-22.5a1.25,1.25,0,0,1,1.25-1.25h2.5a1.25,1.25,0,0,1,1.25,1.25Zm5-3.12H202v-15h2.5Z" transform="translate(-177 -177)"/><path d="M182.63,189.5h6.25a1.25,1.25,0,0,0,0-2.5h-6.25a1.25,1.25,0,0,0,0,2.5Z" transform="translate(-177 -177)"/><path d="M183.88,191.38h-1.25a1.25,1.25,0,0,0,0,2.5h1.25a1.25,1.25,0,0,0,0-2.5Z" transform="translate(-177 -177)"/><path d="M188.88,191.38h-1.25a1.25,1.25,0,0,0,0,2.5h1.25a1.25,1.25,0,0,0,0-2.5Z" transform="translate(-177 -177)"/><path d="M188.88,195.75h-1.25a1.25,1.25,0,0,0,0,2.5h1.25a1.25,1.25,0,0,0,0-2.5Z" transform="translate(-177 -177)"/><path d="M183.88,195.75h-1.25a1.25,1.25,0,0,0,0,2.5h1.25a1.25,1.25,0,0,0,0-2.5Z" transform="translate(-177 -177)"/></svg>