<svg id="Слой_1" data-name="Слой 1" xmlns="http://www.w3.org/2000/svg" viewBox="0 0 40 40"><title>__tw</title><rect width="40" height="40" style="fill:#fff"/><path d="M265.88,126.26a11.88,11.88,0,0,0,14.8-1.74,11.57,11.57,0,0,0,3.18-8.15,4.77,4.77,0,0,0,1.73-3.24.64.64,0,0,0-.95-.55,2.61,2.61,0,0,1-2.13.36,4.51,4.51,0,0,0-5.34-.72,4.34,4.34,0,0,0-2.35,4.07,10.44,10.44,0,0,1-6.79-3.71.63.63,0,0,0-1,.09,4.35,4.35,0,0,0-.1,4.34.66.66,0,0,0-.55.66A4.44,4.44,0,0,0,267.9,121a.63.63,0,0,0-.16.66,4.51,4.51,0,0,0,2.56,2.74,7.3,7.3,0,0,1-4,.67A.63.63,0,0,0,265.88,126.26Zm6.47-1.61a.63.63,0,0,0-.37-1.13,3.32,3.32,0,0,1-2.59-1.35,4.27,4.27,0,0,0,.87-.14.63.63,0,0,0,0-1.22,3.24,3.24,0,0,1-2.46-2.21,4.52,4.52,0,0,0,1,.13.63.63,0,0,0,.36-1.16,3.15,3.15,0,0,1-1.34-3.43,11.77,11.77,0,0,0,7.78,3.48.63.63,0,0,0,.64-.78,3.09,3.09,0,0,1,1.61-3.51,3.24,3.24,0,0,1,4,.6,3.12,3.12,0,0,0,2.29.26,4,4,0,0,1-1.15,1.36.62.62,0,0,0-.27.55,10.26,10.26,0,0,1-10.41,10.71,10.76,10.76,0,0,1-3.4-.55A8.58,8.58,0,0,0,272.35,124.65Z" transform="translate(-255.59 -99.87)" style="fill:#14823d"/></svg>