<svg id="Capa_1" data-name="Capa 1" xmlns="http://www.w3.org/2000/svg" viewBox="0 0 64 64"><title>_chance2</title><path d="M280,235.63a1.25,1.25,0,0,0,1.25-1.25v-6.63A3.75,3.75,0,0,0,277.5,224H227.75a3.75,3.75,0,0,0-3.75,3.75v56.5a3.75,3.75,0,0,0,3.75,3.75H277.5a3.75,3.75,0,0,0,3.75-3.75v-3.5a1.25,1.25,0,0,0-2.5,0v3.5a1.25,1.25,0,0,1-1.25,1.25H227.75a1.25,1.25,0,0,1-1.25-1.25v-56.5a1.25,1.25,0,0,1,1.25-1.25H277.5a1.25,1.25,0,0,1,1.25,1.25v6.63A1.25,1.25,0,0,0,280,235.63Z" transform="translate(-224 -224)" style="fill:#fff"/><path d="M274,230H231.25a1.25,1.25,0,0,0-1.25,1.25v26.13a1.25,1.25,0,0,0,2.5,0V232.5h40.25v2a1.25,1.25,0,0,0,2.5,0v-3.25A1.25,1.25,0,0,0,274,230Z" transform="translate(-224 -224)" style="fill:#fff"/><path d="M232.13,261.12a1.23,1.23,0,1,0,.37.88A1.22,1.22,0,0,0,232.13,261.12Z" transform="translate(-224 -224)" style="fill:#fff"/><path d="M274,276.75a1.25,1.25,0,0,0-1.25,1.25v1.5H232.5V266.81a1.25,1.25,0,0,0-2.5,0v13.94a1.25,1.25,0,0,0,1.25,1.25H274a1.25,1.25,0,0,0,1.25-1.25V278A1.25,1.25,0,0,0,274,276.75Z" transform="translate(-224 -224)" style="fill:#fff"/><path d="M262.74,268.17a1.25,1.25,0,0,0-1.77,0l-2.47,2.47L257,269.1a2.48,2.48,0,0,0-3.51,0l-1,1a1.25,1.25,0,1,0,1.77,1.77l1-1,1.53,1.54a2.51,2.51,0,0,0,3.52,0l2.48-2.49A1.24,1.24,0,0,0,262.74,268.17Z" transform="translate(-224 -224)" style="fill:#fff"/><path d="M287.42,250.22A3.62,3.62,0,0,0,286,245a1.14,1.14,0,0,1-.61-1.06,3.63,3.63,0,0,0-3.8-3.8,1.12,1.12,0,0,1-1.06-.62,3.65,3.65,0,0,0-5.2-1.39,1.12,1.12,0,0,1-1.22,0,3.65,3.65,0,0,0-5.2,1.39,1.13,1.13,0,0,1-1.06.62,3.63,3.63,0,0,0-3.8,3.8,1.14,1.14,0,0,1-.61,1.06,3.59,3.59,0,0,0-1.93,3.72H239.72a1.25,1.25,0,0,0,0,2.5h22.45l-.09.2a3.62,3.62,0,0,0-.46,2.9c0,.14.09.27.14.4h-22a1.25,1.25,0,0,0,0,2.5H264a1.17,1.17,0,0,1,.07.46,3.63,3.63,0,0,0,3.8,3.8,1.12,1.12,0,0,1,1.06.61,3.42,3.42,0,0,0,.56.79v11.68a1.25,1.25,0,0,0,2.13.88l3.12-3.1,3.12,3.1a1.25,1.25,0,0,0,.88.37,1.15,1.15,0,0,0,.48-.1,1.24,1.24,0,0,0,.77-1.15V262.91a3.42,3.42,0,0,0,.56-.79,1.14,1.14,0,0,1,1.06-.61,3.63,3.63,0,0,0,3.8-3.8,1.15,1.15,0,0,1,.61-1.07,3.62,3.62,0,0,0,1.39-5.19A1.18,1.18,0,0,1,287.42,250.22Zm-9.92,21.36-1.87-1.86a1.26,1.26,0,0,0-1.76,0L272,271.58v-7.5a3.62,3.62,0,0,0,2.14-.57,1.12,1.12,0,0,1,1.22,0,3.65,3.65,0,0,0,2,.58h.17Zm8-17.87a1.13,1.13,0,0,1-.57.71,3.66,3.66,0,0,0-2,3.4,1.11,1.11,0,0,1-.33.86,1.13,1.13,0,0,1-.85.33,3.63,3.63,0,0,0-3.4,2,1.14,1.14,0,0,1-1.63.44,3.6,3.6,0,0,0-3.92,0,1.14,1.14,0,0,1-1.63-.44,3.63,3.63,0,0,0-3.4-2,1.13,1.13,0,0,1-.85-.33,1.11,1.11,0,0,1-.33-.86,3.69,3.69,0,0,0-1-2.66l-.06-.06a3.66,3.66,0,0,0-.92-.68,1.14,1.14,0,0,1-.43-1.62,3.67,3.67,0,0,0,0-3.93,1.1,1.1,0,0,1-.14-.9,1.12,1.12,0,0,1,.57-.72,3.65,3.65,0,0,0,2-3.4,1.11,1.11,0,0,1,.33-.86,1.17,1.17,0,0,1,.85-.33,3.63,3.63,0,0,0,3.4-2,1.16,1.16,0,0,1,.72-.58,1.13,1.13,0,0,1,.91.15,3.65,3.65,0,0,0,3.92,0,1.13,1.13,0,0,1,.91-.15,1.16,1.16,0,0,1,.72.58,3.63,3.63,0,0,0,3.4,2,1.17,1.17,0,0,1,.85.33,1.11,1.11,0,0,1,.33.86,3.65,3.65,0,0,0,2,3.4,1.12,1.12,0,0,1,.57.72,1.1,1.1,0,0,1-.14.9,3.67,3.67,0,0,0,0,3.93A1.12,1.12,0,0,1,285.46,253.71Z" transform="translate(-224 -224)" style="fill:#fff"/><path d="M280.69,247.44a1.24,1.24,0,0,0-1.76,0l-4.15,4.14-1.65-1.65a1.25,1.25,0,0,0-1.77,1.77l2.53,2.54a1.28,1.28,0,0,0,.89.36,1.24,1.24,0,0,0,.88-.36l5-5A1.24,1.24,0,0,0,280.69,247.44Z" transform="translate(-224 -224)" style="fill:#fff"/><path d="M239.26,239.12a1.24,1.24,0,0,0-1.77,0,1.25,1.25,0,0,0,.89,2.13,1.23,1.23,0,0,0,.88-.37,1.23,1.23,0,0,0,0-1.76Z" transform="translate(-224 -224)" style="fill:#fff"/><path d="M249.13,238.75H243a1.25,1.25,0,1,0,0,2.5h6.09a1.25,1.25,0,0,0,0-2.5Z" transform="translate(-224 -224)" style="fill:#fff"/><path d="M261.85,260.75H247.56a1.25,1.25,0,0,0,0,2.5h14.29a1.25,1.25,0,0,0,0-2.5Z" transform="translate(-224 -224)" style="fill:#fff"/></svg>