<svg id="Capa_1" data-name="Capa 1" xmlns="http://www.w3.org/2000/svg" viewBox="0 0 64 58.99"><title>_chance1</title><path d="M287.63,264.62a1.23,1.23,0,1,0,.37.88A1.22,1.22,0,0,0,287.63,264.62Z" transform="translate(-224 -226.5)" style="fill:#fff"/><path d="M286.75,269.38a1.24,1.24,0,0,0-1.25,1.25v8.62a3.76,3.76,0,0,1-3.75,3.75h-51.5a3.76,3.76,0,0,1-3.74-3.5H243a1.25,1.25,0,0,0,0-2.5H226.5V256.71a6.6,6.6,0,0,0,4.1,1.43h4.21v2.05a5.13,5.13,0,0,0,5.12,5.12h.36a5.13,5.13,0,0,0,5.13-5.12v-2.05h21.16v2.05a5.13,5.13,0,0,0,5.13,5.12h.36a5.13,5.13,0,0,0,5.12-5.12v-2.05h4.21a6.6,6.6,0,0,0,4.1-1.43v3.92a1.25,1.25,0,0,0,2.5,0V244a6.25,6.25,0,0,0-6.25-6.25H270.27V233a6.51,6.51,0,0,0-6.5-6.5H248.23a6.51,6.51,0,0,0-6.5,6.5v4.75H230.25A6.25,6.25,0,0,0,224,244v35.25a6.26,6.26,0,0,0,6.25,6.25h51.5a6.26,6.26,0,0,0,6.25-6.25v-8.62A1.24,1.24,0,0,0,286.75,269.38Zm-43.83-9.19a2.63,2.63,0,0,1-2.63,2.62h-.36a2.62,2.62,0,0,1-2.62-2.62v-4.57h5.61Zm31.77,0a2.62,2.62,0,0,1-2.62,2.62h-.36a2.63,2.63,0,0,1-2.63-2.62v-4.57h5.61ZM244.23,233a4,4,0,0,1,4-4h15.54a4,4,0,0,1,4,4v4.75h-2.5v-5A1.25,1.25,0,0,0,264,231.5H248a1.25,1.25,0,0,0-1.25,1.25v5h-2.5Zm18.54,1v3.75H249.23V234ZM226.5,244a3.75,3.75,0,0,1,3.75-3.75h51.5A3.75,3.75,0,0,1,285.5,244v7.54a4.11,4.11,0,0,1-4.1,4.1h-4.21v-.89a1.63,1.63,0,0,0-1.62-1.63h-7.36a1.63,1.63,0,0,0-1.63,1.63v.89H245.42v-.89a1.63,1.63,0,0,0-1.63-1.63h-7.36a1.63,1.63,0,0,0-1.62,1.63v.89H230.6a4.11,4.11,0,0,1-4.1-4.1Z" transform="translate(-224 -226.5)" style="fill:#fff"/><path d="M248,277h0a1.25,1.25,0,0,0,0,2.5h0a1.25,1.25,0,1,0,0-2.5Z" transform="translate(-224 -226.5)" style="fill:#fff"/></svg>