<svg xmlns="http://www.w3.org/2000/svg" viewBox="0 0 30 30">
  <title>fax</title>
  <g id="Слой_2" data-name="Слой 2">
    <g id="Слой_1-2" data-name="Слой 1">
      <path d="M28.75,5.63H25V3.75A3.75,3.75,0,0,0,21.25,0h-2.5A3.75,3.75,0,0,0,15,3.75V5.63H1.25A1.24,1.24,0,0,0,0,6.88v17.5a1.25,1.25,0,0,0,1.25,1.25H15v.62A3.75,3.75,0,0,0,18.75,30h2.5A3.75,3.75,0,0,0,25,26.25v-.62h3.75A1.25,1.25,0,0,0,30,24.38V6.88A1.24,1.24,0,0,0,28.75,5.63ZM2.5,23.13v-15H15v15Zm20,3.12a1.25,1.25,0,0,1-1.25,1.25h-2.5a1.25,1.25,0,0,1-1.25-1.25V3.75A1.25,1.25,0,0,1,18.75,2.5h2.5A1.25,1.25,0,0,1,22.5,3.75Zm5-3.12H25v-15h2.5Z" style="fill: #fff"/>
      <path d="M5.63,12.5h6.25a1.25,1.25,0,1,0,0-2.5H5.63a1.25,1.25,0,1,0,0,2.5Z" style="fill: #fff"/>
      <path d="M6.88,14.38H5.63a1.25,1.25,0,0,0,0,2.5H6.88a1.25,1.25,0,1,0,0-2.5Z" style="fill: #fff"/>
      <path d="M11.88,14.38H10.63a1.25,1.25,0,0,0,0,2.5h1.25a1.25,1.25,0,0,0,0-2.5Z" style="fill: #fff"/>
      <path d="M11.88,18.75H10.63a1.25,1.25,0,0,0,0,2.5h1.25a1.25,1.25,0,1,0,0-2.5Z" style="fill: #fff"/>
      <path d="M6.88,18.75H5.63a1.25,1.25,0,1,0,0,2.5H6.88a1.25,1.25,0,1,0,0-2.5Z" style="fill: #fff"/>
    </g>
  </g>
</svg>
