<svg xmlns="http://www.w3.org/2000/svg" viewBox="0 0 20 20">
  <title>green_organizer</title>
  <g id="Слой_2" data-name="Слой 2">
    <g id="Слой_1-2" data-name="Слой 1">
      <path d="M15.83,10H14.07a5.83,5.83,0,1,0-8.14,0H4.17A4.17,4.17,0,0,0,0,14.17V15a.83.83,0,0,0,.83.83A.84.84,0,0,0,1.67,15v-.83a2.5,2.5,0,0,1,2.5-2.5H15.83a2.5,2.5,0,0,1,2.5,2.5v5a.84.84,0,0,0,.84.83.83.83,0,0,0,.83-.83v-5A4.17,4.17,0,0,0,15.83,10Zm-10-4.17A4.17,4.17,0,1,1,10,10,4.17,4.17,0,0,1,5.83,5.83Z" style="fill: #14823d"/>
      <path d="M.83,20a.84.84,0,0,0,.84-.83v-.84a.84.84,0,0,0-.84-.83.83.83,0,0,0-.83.83v.84A.83.83,0,0,0,.83,20Z" style="fill: #14823d"/>
    </g>
  </g>
</svg>
