<svg xmlns="http://www.w3.org/2000/svg" viewBox="0 0 40 40">
  <title>green_linkedin</title>
  <g id="Слой_2" data-name="Слой 2">
    <g id="Слой_1-2" data-name="Слой 1">
      <rect width="40" height="40" style="fill: #14823d"/>
      <g>
        <path d="M24.7,15.92a5,5,0,0,0-3.11,1c0-1.22-1.32-.55-4.35-.73a.63.63,0,0,0-.63.63c.25,11.8-.56,13.14.63,13.14h3.88c1.13,0,.41-1.59.62-6.82,0-2.17.63-2.59,1.71-2.59s1.39.83,1.39,2.69c.22,5.14-.49,6.72.63,6.72h3.88a.63.63,0,0,0,.63-.63C29.69,22.83,31.51,15.92,24.7,15.92Zm4,12.83H26.09c0-5.95.63-9.41-2.64-9.41h0c-3.74,0-3,4.12-3,9.41H17.86V17.48h2.48v1.08a.66.66,0,0,0,1.23.3,3.48,3.48,0,0,1,3.13-1.69c2.94,0,4,1.44,4,5.33Z" style="fill: #fff"/>
        <path d="M15.43,16.86c0-1.08-1.57-.45-4.52-.63-1.18,0-.37,1.32-.62,13.15a.62.62,0,0,0,.62.62H14.8C16,30,15.17,28.68,15.43,16.86ZM14.18,28.75H11.54V17.48h2.64Z" style="fill: #fff"/>
        <path d="M12.85,10c-3.81,0-3.79,5.77,0,5.77S16.67,10,12.85,10Zm0,4.52a1.64,1.64,0,0,1,0-3.27A1.64,1.64,0,0,1,12.85,14.52Z" style="fill: #fff"/>
      </g>
    </g>
  </g>
</svg>
