<svg xmlns="http://www.w3.org/2000/svg" viewBox="0 0 15 20">
  <title>green_phone</title>
  <g id="Слой_2" data-name="Слой 2">
    <g id="Слой_1-2" data-name="Слой 1">
      <path d="M1.67,20H13.33A1.67,1.67,0,0,0,15,18.33V1.67A1.67,1.67,0,0,0,13.33,0H1.67A1.67,1.67,0,0,0,0,1.67V18.33A1.67,1.67,0,0,0,1.67,20ZM10.15,1.67,9.79,2.92H5.21L4.85,1.67Zm-8.48,0H3.12l.49,1.7a1.66,1.66,0,0,0,1.6,1.21H9.79a1.66,1.66,0,0,0,1.6-1.21l.49-1.7h1.45V18.33H1.67V1.67Z" style="fill: #14823d"/>
      <path d="M6.67,17.08H8.33a.83.83,0,1,0,0-1.66H6.67a.83.83,0,1,0,0,1.66Z" style="fill: #14823d"/>
    </g>
  </g>
</svg>
