<svg xmlns="http://www.w3.org/2000/svg" viewBox="0 0 15 20">
  <title>green_placeholder</title>
  <g id="Слой_2" data-name="Слой 2">
    <g id="Слой_1-2" data-name="Слой 1">
      <path d="M10.93,14.58a.83.83,0,0,0,1.15-.24C14,11.36,15,9.06,15,7.5a7.5,7.5,0,0,0-15,0c0,3.87,6.16,11.36,6.86,12.2a.83.83,0,0,0,.64.3h0a.83.83,0,0,0,.64-.3s.95-1.13,2.1-2.71a.83.83,0,0,0-.18-1.16A.84.84,0,0,0,8.89,16c-.54.74-1,1.37-1.39,1.83C5.42,15.23,1.67,10,1.67,7.5a5.83,5.83,0,0,1,11.66,0c0,1.19-.94,3.3-2.65,5.93A.83.83,0,0,0,10.93,14.58Z" style="fill: #14823d"/>
      <path d="M4.58,6.67A2.92,2.92,0,1,0,7.5,3.75,2.92,2.92,0,0,0,4.58,6.67Zm4.17,0A1.25,1.25,0,1,1,7.5,5.42,1.25,1.25,0,0,1,8.75,6.67Z" style="fill: #14823d"/>
    </g>
  </g>
</svg>
