<svg xmlns="http://www.w3.org/2000/svg" viewBox="0 0 80 80">
  <title>big_icon_1</title>
  <g id="Слой_2" data-name="Слой 2">
    <g id="Layer_1" data-name="Layer 1">
      <g>
        <path d="M72.19,0H31.56a7.81,7.81,0,0,0-7.81,7.81V21.87H7.81A7.82,7.82,0,0,0,0,29.69V62.81a7.81,7.81,0,0,0,7.81,7.81h3.13v7.82a1.56,1.56,0,0,0,1,1.44,1.61,1.61,0,0,0,.6.12,1.53,1.53,0,0,0,1.1-.46l8.92-8.92H48.44a7.81,7.81,0,0,0,7.81-7.81V48.75h3.12v7.81a1.59,1.59,0,0,0,1,1.45,1.55,1.55,0,0,0,1.7-.34L71,48.75h2.48c4,0,6.56-3.07,6.56-7.81V7.81A7.81,7.81,0,0,0,72.19,0ZM53.12,62.81a4.69,4.69,0,0,1-4.68,4.69H21.87a1.53,1.53,0,0,0-1.1.46l-6.71,6.71V69.06A1.56,1.56,0,0,0,12.5,67.5H7.81a4.7,4.7,0,0,1-4.69-4.69V29.69A4.7,4.7,0,0,1,7.81,25H48.44a4.69,4.69,0,0,1,4.68,4.69ZM76.87,40.94c0,1.75-.44,4.68-3.43,4.68H70.31a1.57,1.57,0,0,0-1.1.46L62.5,52.79v-5.6a1.56,1.56,0,0,0-1.56-1.57H56.25V34.37h9.69a1.56,1.56,0,0,0,0-3.12H56.25V29.69a7.82,7.82,0,0,0-7.81-7.82H26.87V7.81a4.7,4.7,0,0,1,4.69-4.69H72.19a4.69,4.69,0,0,1,4.68,4.69Z" style="fill: #0a401e"/>
        <path d="M65.94,12.5H37.81a1.56,1.56,0,0,0,0,3.12H65.94a1.56,1.56,0,1,0,0-3.12Z" style="fill: #0a401e"/>
        <path d="M65.94,21.87H59.69a1.57,1.57,0,1,0,0,3.13h6.25a1.57,1.57,0,0,0,0-3.13Z" style="fill: #0a401e"/>
        <path d="M14.06,37.5a1.57,1.57,0,1,0-1.56-1.56A1.56,1.56,0,0,0,14.06,37.5Z" style="fill: #0a401e"/>
        <path d="M42.19,34.37H20.31a1.57,1.57,0,0,0,0,3.13H42.19a1.57,1.57,0,0,0,0-3.13Z" style="fill: #0a401e"/>
        <path d="M42.19,43.75H26.56a1.56,1.56,0,0,0,0,3.12H42.19a1.56,1.56,0,1,0,0-3.12Z" style="fill: #0a401e"/>
        <path d="M14.06,46.87h6.25a1.56,1.56,0,1,0,0-3.12H14.06a1.56,1.56,0,0,0,0,3.12Z" style="fill: #0a401e"/>
        <path d="M29.69,53.12H14.37a1.57,1.57,0,0,0,0,3.13H29.69a1.57,1.57,0,0,0,0-3.13Z" style="fill: #0a401e"/>
      </g>
    </g>
  </g>
</svg>
