<svg xmlns="http://www.w3.org/2000/svg" viewBox="0 0 80 80">
  <title>big_icon_2</title>
  <g id="Слой_2" data-name="Слой 2">
    <g id="Layer_1" data-name="Layer 1">
      <g>
        <path d="M78.44,0H1.56A1.56,1.56,0,0,0,0,1.56V78.44A1.56,1.56,0,0,0,1.56,80H78.44A1.56,1.56,0,0,0,80,78.44V1.56A1.56,1.56,0,0,0,78.44,0ZM76.88,38.44H41.56V3.13H76.88ZM3.13,3.13H38.44V38.44H3.13Zm0,38.43H38.44V76.88H3.13ZM76.88,76.88H41.56V41.56H76.88Z" style="fill: #0a401e"/>
        <path d="M30.77,12.49,17.5,25.76l-6.71-6.71a1.56,1.56,0,1,0-2.21,2.21l7.82,7.81a1.55,1.55,0,0,0,2.2,0L33,14.7a1.56,1.56,0,1,0-2.21-2.21Z" style="fill: #0a401e"/>
        <path d="M53,25.47H71.72a1.57,1.57,0,0,0,0-3.13H53a1.57,1.57,0,0,0,0,3.13Z" style="fill: #0a401e"/>
        <path d="M46.72,25.47a1.57,1.57,0,1,0-1.56-1.56A1.56,1.56,0,0,0,46.72,25.47Z" style="fill: #0a401e"/>
        <path d="M53,19.22H71.72a1.57,1.57,0,0,0,0-3.13H53a1.57,1.57,0,0,0,0,3.13Z" style="fill: #0a401e"/>
        <path d="M46.72,19.22a1.57,1.57,0,1,0-1.56-1.56A1.56,1.56,0,0,0,46.72,19.22Z" style="fill: #0a401e"/>
        <path d="M53,57.66H71.72a1.57,1.57,0,0,0,0-3.13H53a1.57,1.57,0,0,0,0,3.13Z" style="fill: #0a401e"/>
        <path d="M46.72,57.66a1.57,1.57,0,1,0-1.56-1.57A1.57,1.57,0,0,0,46.72,57.66Z" style="fill: #0a401e"/>
        <path d="M46.72,51.41a1.57,1.57,0,1,0-1.56-1.57A1.57,1.57,0,0,0,46.72,51.41Z" style="fill: #0a401e"/>
        <path d="M53,51.41H71.72a1.57,1.57,0,0,0,0-3.13H53a1.57,1.57,0,0,0,0,3.13Z" style="fill: #0a401e"/>
        <path d="M53,70.16H71.72a1.57,1.57,0,0,0,0-3.13H53a1.57,1.57,0,0,0,0,3.13Z" style="fill: #0a401e"/>
        <path d="M46.72,70.16a1.57,1.57,0,1,0-1.56-1.57A1.57,1.57,0,0,0,46.72,70.16Z" style="fill: #0a401e"/>
        <path d="M53,63.91H71.72a1.57,1.57,0,0,0,0-3.13H53a1.57,1.57,0,0,0,0,3.13Z" style="fill: #0a401e"/>
        <path d="M46.72,63.91a1.57,1.57,0,1,0-1.56-1.57A1.57,1.57,0,0,0,46.72,63.91Z" style="fill: #0a401e"/>
        <path d="M8.28,54.53a1.57,1.57,0,1,0,1.56,1.56A1.56,1.56,0,0,0,8.28,54.53Z" style="fill: #0a401e"/>
        <path d="M33.28,54.53H14.53a1.57,1.57,0,0,0,0,3.13H33.28a1.57,1.57,0,0,0,0-3.13Z" style="fill: #0a401e"/>
        <path d="M8.28,48.28a1.57,1.57,0,1,0,1.56,1.56A1.56,1.56,0,0,0,8.28,48.28Z" style="fill: #0a401e"/>
        <path d="M33.28,48.28H14.53a1.57,1.57,0,0,0,0,3.13H33.28a1.57,1.57,0,0,0,0-3.13Z" style="fill: #0a401e"/>
      </g>
    </g>
  </g>
</svg>
