<svg xmlns="http://www.w3.org/2000/svg" viewBox="0 0 22.5 30">
  <title>phone_1</title>
  <g id="Слой_2" data-name="Слой 2">
    <g id="Слой_1-2" data-name="Слой 1">
      <path d="M2.5,30H20a2.5,2.5,0,0,0,2.5-2.5V2.5A2.5,2.5,0,0,0,20,0H2.5A2.5,2.5,0,0,0,0,2.5v25A2.5,2.5,0,0,0,2.5,30ZM15.22,2.5l-.54,1.88H7.82L7.28,2.5ZM2.5,2.5H4.68l.73,2.56A2.53,2.53,0,0,0,7.82,6.88h6.86a2.53,2.53,0,0,0,2.41-1.82l.73-2.56H20v25H2.5V2.5Z" style="fill: #fff"/>
      <path d="M10,25.63h2.5a1.26,1.26,0,0,0,0-2.51H10a1.26,1.26,0,0,0,0,2.51Z" style="fill: #fff"/>
    </g>
  </g>
</svg>
