<svg xmlns="http://www.w3.org/2000/svg" viewBox="0 0 64 58.99">
  <title>subpage_big_icon_1</title>
  <g id="Слой_2" data-name="Слой 2">
    <g id="Capa_1" data-name="Capa 1">
      <path d="M63.63,38.11A1.25,1.25,0,0,0,61.5,39a1.23,1.23,0,0,0,.37.88,1.23,1.23,0,0,0,1.76,0,1.24,1.24,0,0,0,0-1.77Z" style="fill: #fff"/>
      <path d="M62.75,42.87a1.25,1.25,0,0,0-1.25,1.25v8.62a3.75,3.75,0,0,1-3.75,3.75H6.25A3.76,3.76,0,0,1,2.51,53H19a1.25,1.25,0,0,0,0-2.5H2.5V30.2a6.54,6.54,0,0,0,4.1,1.43h4.21v2.05a5.13,5.13,0,0,0,5.12,5.13h.36a5.13,5.13,0,0,0,5.13-5.13V31.63H42.58v2.05a5.13,5.13,0,0,0,5.13,5.13h.36a5.13,5.13,0,0,0,5.12-5.13V31.63H57.4a6.54,6.54,0,0,0,4.1-1.43v3.93a1.25,1.25,0,0,0,2.5,0V17.49a6.26,6.26,0,0,0-6.25-6.25H46.27V6.5A6.51,6.51,0,0,0,39.77,0H24.23a6.51,6.51,0,0,0-6.5,6.5v4.74H6.25A6.26,6.26,0,0,0,0,17.49V52.74A6.25,6.25,0,0,0,6.25,59h51.5A6.25,6.25,0,0,0,64,52.74V44.12A1.25,1.25,0,0,0,62.75,42.87ZM18.92,33.68a2.63,2.63,0,0,1-2.63,2.63h-.36a2.62,2.62,0,0,1-2.62-2.63V29.12h5.61Zm31.77,0a2.62,2.62,0,0,1-2.62,2.63h-.36a2.63,2.63,0,0,1-2.63-2.63V29.12h5.61ZM20.23,6.5a4,4,0,0,1,4-4H39.77a4,4,0,0,1,4,4v4.74h-2.5v-5A1.25,1.25,0,0,0,40,5H24a1.25,1.25,0,0,0-1.25,1.25v5h-2.5Zm18.54,1v3.74H25.23V7.5ZM2.5,17.49a3.75,3.75,0,0,1,3.75-3.75h51.5a3.75,3.75,0,0,1,3.75,3.75V25a4.1,4.1,0,0,1-4.1,4.09H53.19v-.89a1.63,1.63,0,0,0-1.62-1.62H44.21a1.63,1.63,0,0,0-1.63,1.62v.89H21.42v-.89a1.63,1.63,0,0,0-1.63-1.62H12.43a1.63,1.63,0,0,0-1.62,1.62v.89H6.6A4.1,4.1,0,0,1,2.5,25Z" style="fill: #fff"/>
      <path d="M24,50.49h0A1.25,1.25,0,0,0,24,53h0a1.25,1.25,0,0,0,0-2.5Z" style="fill: #fff"/>
    </g>
  </g>
</svg>
