<svg xmlns="http://www.w3.org/2000/svg" viewBox="0 0 40 40">
  <title>twitter</title>
  <g id="Слой_2" data-name="Слой 2">
    <g id="Слой_1-2" data-name="Слой 1">
      <rect width="40" height="40" style="fill: #fff"/>
      <path d="M10.29,26.39a11.88,11.88,0,0,0,14.8-1.74,11.55,11.55,0,0,0,3.18-8.15A4.75,4.75,0,0,0,30,13.26a.63.63,0,0,0-.95-.54,2.6,2.6,0,0,1-2.13.35,4.51,4.51,0,0,0-5.34-.72,4.35,4.35,0,0,0-2.35,4.07,10.44,10.44,0,0,1-6.79-3.71.63.63,0,0,0-1,.09,4.39,4.39,0,0,0-.1,4.35.65.65,0,0,0-.55.65,4.42,4.42,0,0,0,1.55,3.36.63.63,0,0,0-.16.66,4.55,4.55,0,0,0,2.56,2.75,7.37,7.37,0,0,1-4,.67.63.63,0,0,0-.42,1.15Zm6.47-1.61a.63.63,0,0,0-.37-1.13,3.27,3.27,0,0,1-2.58-1.34,5.14,5.14,0,0,0,.86-.14.63.63,0,0,0,0-1.23,3.26,3.26,0,0,1-2.46-2.21,4.52,4.52,0,0,0,1,.13.63.63,0,0,0,.36-1.16,3.14,3.14,0,0,1-1.34-3.42,11.76,11.76,0,0,0,7.78,3.47.63.63,0,0,0,.64-.77,3.08,3.08,0,0,1,1.61-3.51,3.23,3.23,0,0,1,3.95.6,3.22,3.22,0,0,0,2.29.26,4.06,4.06,0,0,1-1.15,1.35.63.63,0,0,0-.27.55,10.23,10.23,0,0,1-2.83,7.55A10.35,10.35,0,0,1,16.59,27a10.49,10.49,0,0,1-3.4-.56,8.4,8.4,0,0,0,3.57-1.61Z" style="fill: #14823d"/>
    </g>
  </g>
</svg>
